<svg width="60" height="43" viewBox="0 0 60 43" fill="none" xmlns="http://www.w3.org/2000/svg">
<g clip-path="url(#clip0_117_8277)" filter="url(#filter0_d_117_8277)">
<mask id="mask0_117_8277" style="mask-type:luminance" maskUnits="userSpaceOnUse" x="4" y="0" width="52" height="35">
<path d="M56 0H4V35H56V0Z" fill="white"/>
</mask>
<g mask="url(#mask0_117_8277)">
<path d="M27.0132 7.74064L26.9471 7.75401L24.7793 8.2754C24.6604 8.30214 24.5678 8.39572 24.515 8.52941L21.5938 16.0027L20.7478 9.75936C20.7214 9.53208 20.5627 9.37165 20.3909 9.38502L20.338 9.39839L17.8795 10.0134C17.7605 10.0401 17.668 10.1471 17.6151 10.2807L12.7376 23.5695C12.6715 23.7433 12.6848 23.9438 12.7641 24.0909L13.0549 24.2513L13.121 24.238L15.2887 23.4626C15.4077 23.4225 15.5002 23.3155 15.5531 23.1684L18.5536 15.0401L19.4392 21.5374C19.4656 21.7647 19.6243 21.9118 19.7961 21.885L19.849 21.8717L22.1754 21.0829C22.2943 21.0428 22.3868 20.9358 22.4397 20.8021L27.3172 8.40909C27.3833 8.26203 27.3701 8.07486 27.2908 7.94117L27.0132 7.74064Z" fill="#253786"/>
</g>
<mask id="mask1_117_8277" style="mask-type:luminance" maskUnits="userSpaceOnUse" x="4" y="0" width="52" height="35">
<path d="M56 0H4V35H56V0Z" fill="white"/>
</mask>
<g mask="url(#mask1_117_8277)">
<path d="M31.3876 6.73797L31.3348 6.75134L29.0084 7.2861C28.8894 7.31283 28.7969 7.40642 28.744 7.52674L23.8665 19.7727C23.8004 19.9332 23.8137 20.1203 23.893 20.254L24.1838 20.4011L24.2366 20.3877L26.563 19.6257C26.682 19.5856 26.7745 19.492 26.8274 19.3583L31.7049 7.36631C31.771 7.21925 31.7577 7.04546 31.6784 6.91177L31.3876 6.73797Z" fill="#253786"/>
</g>
<mask id="mask2_117_8277" style="mask-type:luminance" maskUnits="userSpaceOnUse" x="4" y="0" width="52" height="35">
<path d="M56 0H4V35H56V0Z" fill="white"/>
</mask>
<g mask="url(#mask2_117_8277)">
<path d="M41.592 5.74866C41.3144 5.24064 40.746 5 39.9265 5.01337C39.6225 5.01337 39.2788 5.05347 38.9087 5.13369L33.5025 6.27005C33.3836 6.29679 33.291 6.377 33.2382 6.51069L28.3607 18.3422C28.2946 18.5027 28.3078 18.6765 28.3871 18.8102L28.6779 18.9572L28.7308 18.9438L33.4364 17.4866C35.8157 16.7781 36.6484 16.1364 37.5473 15.3209C38.4593 14.5053 39.226 13.5027 39.6357 12.5802C40.0455 11.6578 40.1248 10.9759 39.9001 10.4813C39.834 10.3209 39.7282 10.1872 39.6093 10.0802C40.2041 9.63904 40.9311 8.94385 41.4598 7.78075C41.8299 6.96524 41.8696 6.25668 41.592 5.74866ZM37.0978 12.754C36.5956 13.9037 35.7364 14.5989 34.5996 14.9198L31.7577 15.7487L33.0663 12.607L36.0272 11.8315C36.1858 11.7914 36.3444 11.7647 36.4898 11.7513C37.0714 11.6979 37.4415 11.9652 37.0978 12.754ZM38.7898 8.34224C38.4064 9.2246 37.5208 9.74599 36.6088 9.97326L33.8858 10.6417L34.9565 8.14171L37.6266 7.54011C37.8909 7.48663 38.1156 7.44652 38.3007 7.43315C38.8691 7.43315 39.0938 7.6738 38.7898 8.34224Z" fill="#253786"/>
</g>
<mask id="mask3_117_8277" style="mask-type:luminance" maskUnits="userSpaceOnUse" x="4" y="0" width="52" height="35">
<path d="M56 0H4V35H56V0Z" fill="white"/>
</mask>
<g mask="url(#mask3_117_8277)">
<path d="M51.1752 3.71658C50.9901 3.40909 50.5672 3.04813 49.6154 3.04813C49.3775 3.04813 49.1132 3.07486 48.8224 3.11497L44.1035 3.98396L43.8524 4.18449L39.3318 15.0134C39.2789 15.1604 39.2789 15.3209 39.3582 15.4412L39.6358 15.5481L39.6887 15.5348L41.8432 14.6791L42.0944 14.4251L43.6541 10.6952L45.9673 9.98663C48.7034 9.19786 50.3821 7.01871 50.9505 5.88235C51.4263 4.94652 51.5056 4.2246 51.1752 3.71658ZM48.5316 6.12299C48.3333 6.5508 47.831 7.60695 46.2184 8.02139L44.2225 8.55615L45.5575 5.58823L47.2759 5.2139C47.5666 5.14706 47.8178 5.12032 48.0161 5.10695C48.7166 5.10695 48.8752 5.41444 48.5316 6.12299Z" fill="#253786"/>
</g>
<mask id="mask4_117_8277" style="mask-type:luminance" maskUnits="userSpaceOnUse" x="4" y="0" width="52" height="35">
<path d="M56 0H4V35H56V0Z" fill="white"/>
</mask>
<g mask="url(#mask4_117_8277)">
<path d="M15.936 10.254L15.7642 10.2808L12.7637 11.1898C12.3803 11.2968 11.9706 11.6845 11.8384 12.0588L6.96091 25.762C6.85517 26.0562 6.96091 26.2567 7.19884 26.2567L7.39711 26.2166L10.4241 25.2139C10.7942 25.0936 11.2039 24.6791 11.3361 24.3048L16.2136 10.7754C16.3193 10.4679 16.2004 10.254 15.936 10.254Z" fill="#253786"/>
</g>
<mask id="mask5_117_8277" style="mask-type:luminance" maskUnits="userSpaceOnUse" x="4" y="0" width="52" height="35">
<path d="M56 0H4V35H56V0Z" fill="white"/>
</mask>
<g mask="url(#mask5_117_8277)">
<path d="M17.8262 4.95989L17.6676 4.98663L14.8125 5.68182C14.4292 5.78877 14.0194 6.1631 13.874 6.53743L12.7769 9.47861C12.6579 9.7861 12.7769 9.98663 13.028 9.98663L13.1999 9.95989L16.2004 9.06417C16.5837 8.97059 16.9935 8.58289 17.1389 8.20856L18.117 5.49465C18.2227 5.1738 18.1038 4.95989 17.8262 4.95989Z" fill="#253786"/>
</g>
<mask id="mask6_117_8277" style="mask-type:luminance" maskUnits="userSpaceOnUse" x="4" y="0" width="52" height="35">
<path d="M56 0H4V35H56V0Z" fill="white"/>
</mask>
<g mask="url(#mask6_117_8277)">
<path d="M47.7919 0.320856C52.1406 0.320856 54.6256 1.21658 55.1808 2.98128C55.3923 3.63636 55.1279 4.51872 54.4802 5.53476C54.6521 4.85294 54.6124 4.17112 54.163 3.62299C53.1848 2.47326 51.5061 1.92513 48.8361 1.92513C43.4563 1.92513 33.7278 4.21123 18.7913 8.16845L19.8091 5.09358C29.0486 2.86096 40.5219 0.320856 47.7919 0.320856ZM47.7919 0C40.7466 0 29.9342 2.31283 19.558 4.8262L18.2891 8.63636C34.045 4.45187 43.496 2.25936 48.8229 2.25936C51.4004 2.25936 53.013 2.78075 53.9118 3.8369C55.0222 5.16043 53.1055 7.59358 52.3785 8.42246C54.7446 6.24332 55.9078 4.2246 55.4848 2.8877C54.8239 0.815508 51.9688 0 47.7919 0Z" fill="#253786"/>
</g>
<mask id="mask7_117_8277" style="mask-type:luminance" maskUnits="userSpaceOnUse" x="4" y="0" width="52" height="35">
<path d="M56 0H4V35H56V0Z" fill="white"/>
</mask>
<g mask="url(#mask7_117_8277)">
<path d="M6.29991 27.9947L5.13672 31.2166C52.1271 18.1952 55.5902 7.8476 55.9735 6.14973C55.6166 7.51337 50.9374 15.0936 6.29991 27.9947Z" fill="#253786"/>
</g>
<mask id="mask8_117_8277" style="mask-type:luminance" maskUnits="userSpaceOnUse" x="4" y="0" width="52" height="35">
<path d="M56 0H4V35H56V0Z" fill="white"/>
</mask>
<g mask="url(#mask8_117_8277)">
<path d="M55.9736 6.14974C56.0001 6.02941 56.0133 5.96257 56.0133 5.96257C56.0133 5.96257 55.9869 6.02941 55.9736 6.14974Z" fill="#253786"/>
</g>
<mask id="mask9_117_8277" style="mask-type:luminance" maskUnits="userSpaceOnUse" x="4" y="0" width="52" height="35">
<path d="M56 0H4V35H56V0Z" fill="white"/>
</mask>
<g mask="url(#mask9_117_8277)">
<path d="M4.68734 34.4786L5.99593 34.1578L5.87697 34.5455L4 35L4.71378 32.861L5.26894 32.7273L4.68734 34.4786Z" fill="#253786"/>
</g>
<mask id="mask10_117_8277" style="mask-type:luminance" maskUnits="userSpaceOnUse" x="4" y="0" width="52" height="35">
<path d="M56 0H4V35H56V0Z" fill="white"/>
</mask>
<g mask="url(#mask10_117_8277)">
<path d="M7.37033 32.6604L6.86805 34.238L6.35254 34.3717L6.85483 32.7941L7.37033 32.6604ZM7.43642 32.4733L6.92092 32.6069L7.03988 32.2192L7.55539 32.0856L7.43642 32.4733Z" fill="#253786"/>
</g>
<mask id="mask11_117_8277" style="mask-type:luminance" maskUnits="userSpaceOnUse" x="4" y="0" width="52" height="35">
<path d="M56 0H4V35H56V0Z" fill="white"/>
</mask>
<g mask="url(#mask11_117_8277)">
<path d="M9.27363 33.5829L8.75813 33.7166L9.04892 32.7674C9.08858 32.6471 9.12823 32.4599 8.811 32.5401C8.58629 32.5936 8.36158 32.7674 8.29549 33.008L8.03113 33.9037L7.51562 34.0374L7.96504 32.4599L8.46733 32.3262L8.40124 32.5535H8.41446C8.50698 32.4465 8.71847 32.2326 9.08858 32.1257C9.4719 32.0321 9.72305 32.1257 9.6173 32.4733L9.27363 33.5829Z" fill="#253786"/>
</g>
<mask id="mask12_117_8277" style="mask-type:luminance" maskUnits="userSpaceOnUse" x="4" y="0" width="52" height="35">
<path d="M56 0H4V35H56V0Z" fill="white"/>
</mask>
<g mask="url(#mask12_117_8277)">
<path d="M11.733 32.4465C11.4951 32.861 11.0589 33.0882 10.7285 33.1685C10.1733 33.3155 9.80319 33.2219 9.97503 32.5802C10.0279 32.3931 10.279 31.7647 11.1382 31.5374C11.5215 31.4305 12.0238 31.4439 11.8256 32.1524L11.8123 32.2326L10.4509 32.5936C10.4377 32.7005 10.3848 32.9679 10.8078 32.8476C10.9532 32.8075 11.1118 32.7139 11.1911 32.5936L11.733 32.4465ZM11.3497 32.0989C11.3894 31.8583 11.2043 31.8316 11.0325 31.8717C10.7813 31.9385 10.6227 32.0989 10.5302 32.3128L11.3497 32.0989Z" fill="#253786"/>
</g>
<mask id="mask13_117_8277" style="mask-type:luminance" maskUnits="userSpaceOnUse" x="4" y="0" width="52" height="35">
<path d="M56 0H4V35H56V0Z" fill="white"/>
</mask>
<g mask="url(#mask13_117_8277)">
<path d="M13.7682 31.9786C13.7285 32.1658 13.7682 32.1925 13.8211 32.1925L13.8079 32.2594L13.2527 32.4064V32.2326C13.1073 32.3663 12.909 32.5401 12.5521 32.6337C12.2481 32.7139 11.9838 32.6604 12.0631 32.3396C12.1424 32.0321 12.42 31.8182 12.7636 31.6845L13.2395 31.4973L13.451 31.3235C13.4906 31.1497 13.2923 31.2032 13.1602 31.2299C12.8958 31.2968 12.8297 31.4438 12.7901 31.5374L12.2878 31.6711C12.4596 31.1765 12.909 31.0027 13.3056 30.8823C13.5831 30.8021 14.0722 30.7353 13.9797 31.1096L13.7682 31.9786ZM13.3717 31.6578C13.3056 31.7112 13.213 31.7513 13.0015 31.8449C12.8033 31.9251 12.6314 32.0053 12.5918 32.1791C12.5521 32.3262 12.6843 32.3262 12.7901 32.2995C13.0148 32.2326 13.2791 32.0588 13.332 31.8717L13.3717 31.6578Z" fill="#253786"/>
</g>
<mask id="mask14_117_8277" style="mask-type:luminance" maskUnits="userSpaceOnUse" x="4" y="0" width="52" height="35">
<path d="M56 0H4V35H56V0Z" fill="white"/>
</mask>
<g mask="url(#mask14_117_8277)">
<path d="M14.6274 30.5214L15.1297 30.3743L15.0768 30.6417C15.2222 30.4545 15.3808 30.2674 15.6981 30.1872L15.8038 30.1604L15.7113 30.5749L15.5394 30.615C15.1297 30.7219 15.0107 30.9492 14.9711 31.123L14.786 31.9251L14.2705 32.0722L14.6274 30.5214Z" fill="#253786"/>
</g>
<mask id="mask15_117_8277" style="mask-type:luminance" maskUnits="userSpaceOnUse" x="4" y="0" width="52" height="35">
<path d="M56 0H4V35H56V0Z" fill="white"/>
</mask>
<g mask="url(#mask15_117_8277)">
<path d="M17.5884 31.0561L17.0332 31.2166L17.4297 29.1578L17.9981 28.9973L17.5884 31.0561Z" fill="#253786"/>
</g>
<mask id="mask16_117_8277" style="mask-type:luminance" maskUnits="userSpaceOnUse" x="4" y="0" width="52" height="35">
<path d="M56 0H4V35H56V0Z" fill="white"/>
</mask>
<g mask="url(#mask16_117_8277)">
<path d="M19.9935 30.3075L19.4648 30.4679L19.6234 29.5455C19.6366 29.4385 19.663 29.2513 19.3326 29.3449C19.0947 29.4118 18.8964 29.5856 18.8567 29.8128L18.7113 30.6818L18.1826 30.8422L18.4338 29.3316L18.936 29.1845L18.8964 29.4118H18.9096C18.9889 29.3048 19.174 29.0909 19.5573 28.9706C19.9406 28.8503 20.2182 28.9438 20.1653 29.2647L19.9935 30.3075Z" fill="#253786"/>
</g>
<mask id="mask17_117_8277" style="mask-type:luminance" maskUnits="userSpaceOnUse" x="4" y="0" width="52" height="35">
<path d="M56 0H4V35H56V0Z" fill="white"/>
</mask>
<g mask="url(#mask17_117_8277)">
<path d="M21.1965 29.8931L20.6678 30.0535L20.8396 28.8369L20.5488 28.9305L20.5885 28.6497L20.8793 28.5562L20.8925 28.4358C20.9322 28.1283 21.1833 27.9412 21.5402 27.8342C21.6988 27.7941 21.7649 27.7674 21.8045 27.754L21.7649 28.0749L21.6195 28.115C21.4344 28.1685 21.4344 28.2086 21.408 28.3422L21.3948 28.3957L21.7385 28.2888L21.6988 28.5695L21.3551 28.6765L21.1965 29.8931Z" fill="#253786"/>
</g>
<mask id="mask18_117_8277" style="mask-type:luminance" maskUnits="userSpaceOnUse" x="4" y="0" width="52" height="35">
<path d="M56 0H4V35H56V0Z" fill="white"/>
</mask>
<g mask="url(#mask18_117_8277)">
<path d="M22.5053 29.4519L21.9766 29.6123L22.2145 27.607L22.7432 27.4465L22.5053 29.4519Z" fill="#253786"/>
</g>
<mask id="mask19_117_8277" style="mask-type:luminance" maskUnits="userSpaceOnUse" x="4" y="0" width="52" height="35">
<path d="M56 0H4V35H56V0Z" fill="white"/>
</mask>
<g mask="url(#mask19_117_8277)">
<path d="M24.766 28.4091C24.7528 28.5829 24.8056 28.6096 24.8585 28.6096V28.6631L24.2901 28.8503L24.2505 28.6898C24.1183 28.8235 23.9465 28.9973 23.5896 29.1043C23.2856 29.1979 22.9948 29.1711 23.0212 28.8636C23.0476 28.5695 23.312 28.3422 23.6425 28.2086L24.1183 28.008L24.3166 27.8342C24.3298 27.6738 24.1183 27.7273 23.9861 27.7674C23.7218 27.8476 23.6689 27.9813 23.6425 28.0749L23.1402 28.2353C23.2327 27.7674 23.6689 27.5668 24.0787 27.4332C24.3562 27.3396 24.8717 27.246 24.8321 27.6069L24.766 28.4091ZM24.2901 28.1417C24.2373 28.1952 24.1447 28.2353 23.92 28.3422C23.7218 28.4358 23.5631 28.516 23.5499 28.6765C23.5367 28.8102 23.6821 28.8102 23.7746 28.7701C24.0126 28.7032 24.2505 28.516 24.2637 28.3289L24.2901 28.1417Z" fill="#253786"/>
</g>
<mask id="mask20_117_8277" style="mask-type:luminance" maskUnits="userSpaceOnUse" x="4" y="0" width="52" height="35">
<path d="M56 0H4V35H56V0Z" fill="white"/>
</mask>
<g mask="url(#mask20_117_8277)">
<path d="M25.9948 26.8048L26.3252 26.6979L26.312 26.9652L25.9816 27.0722L25.9419 27.861C25.9419 27.9412 25.9419 27.9813 26.1534 27.9011L26.2591 27.861L26.2459 28.1551L25.9948 28.2487L25.9287 28.2754C25.4793 28.4225 25.4 28.3289 25.4132 28.1417L25.4528 27.2594L25.1885 27.3529L25.2017 27.0722L25.4793 26.9786L25.4925 26.5909L26.0212 26.4171L25.9948 26.8048Z" fill="#253786"/>
</g>
<mask id="mask21_117_8277" style="mask-type:luminance" maskUnits="userSpaceOnUse" x="4" y="0" width="52" height="35">
<path d="M56 0H4V35H56V0Z" fill="white"/>
</mask>
<g mask="url(#mask21_117_8277)">
<path d="M27.2901 26.3503L27.2504 27.7941L26.7217 27.9679L26.7613 26.5241L27.2901 26.3503ZM27.3033 26.1765L26.7746 26.3503L26.7878 26.0027L27.3165 25.8289L27.3033 26.1765Z" fill="#253786"/>
</g>
<mask id="mask22_117_8277" style="mask-type:luminance" maskUnits="userSpaceOnUse" x="4" y="0" width="52" height="35">
<path d="M56 0H4V35H56V0Z" fill="white"/>
</mask>
<g mask="url(#mask22_117_8277)">
<path d="M28.8233 27.246C28.2813 27.4332 27.7923 27.3663 27.7923 26.8583C27.779 26.3503 28.2549 25.9492 28.7968 25.7487C29.3388 25.5615 29.8278 25.6283 29.8278 26.1497C29.8411 26.6444 29.3652 27.0588 28.8233 27.246ZM28.7968 26.0562C28.3871 26.1898 28.321 26.4706 28.321 26.6578C28.321 26.8449 28.4003 27.0588 28.8101 26.9251C29.2198 26.7781 29.2859 26.5107 29.2859 26.3235C29.2859 26.1364 29.2066 25.9225 28.7968 26.0562Z" fill="#253786"/>
</g>
<mask id="mask23_117_8277" style="mask-type:luminance" maskUnits="userSpaceOnUse" x="4" y="0" width="52" height="35">
<path d="M56 0H4V35H56V0Z" fill="white"/>
</mask>
<g mask="url(#mask23_117_8277)">
<path d="M32.2204 25.9225L31.6917 26.1096L31.6124 25.2674C31.5992 25.1604 31.5859 25 31.2423 25.1203C31.0043 25.2005 30.8325 25.3877 30.8589 25.5882L30.925 26.377L30.3963 26.5642L30.2773 25.1738L30.7796 24.9866L30.7929 25.1872H30.8061C30.8722 25.0802 31.0043 24.8663 31.3877 24.7326C31.7842 24.5856 32.1014 24.639 32.1279 24.9465L32.2204 25.9225Z" fill="#253786"/>
</g>
<mask id="mask24_117_8277" style="mask-type:luminance" maskUnits="userSpaceOnUse" x="4" y="0" width="52" height="35">
<path d="M56 0H4V35H56V0Z" fill="white"/>
</mask>
<g mask="url(#mask24_117_8277)">
<path d="M35.2869 24.6524L34.7185 24.8797L34.4012 23.4091L33.5949 23.7299L33.5156 23.4091L35.6966 22.5535L35.7759 22.8743L34.9564 23.1818L35.2869 24.6524Z" fill="#253786"/>
</g>
<mask id="mask25_117_8277" style="mask-type:luminance" maskUnits="userSpaceOnUse" x="4" y="0" width="52" height="35">
<path d="M56 0H4V35H56V0Z" fill="white"/>
</mask>
<g mask="url(#mask25_117_8277)">
<path d="M38.1683 22.9947C38.1287 23.3556 37.7718 23.623 37.4281 23.7701C36.8729 23.9973 36.3839 24.0107 36.212 23.4759C36.1592 23.3289 36.0798 22.7941 36.9522 22.4332C37.3356 22.2727 37.9172 22.1658 38.1022 22.754L38.1154 22.8075L36.754 23.369C36.7936 23.4626 36.8994 23.6631 37.3223 23.4893C37.4677 23.4358 37.5999 23.3155 37.6131 23.2086L38.1683 22.9947ZM37.5338 22.8209C37.4413 22.6203 37.2166 22.6471 37.0448 22.7139C36.7936 22.8209 36.7011 22.9679 36.7275 23.1551L37.5338 22.8209Z" fill="#253786"/>
</g>
<mask id="mask26_117_8277" style="mask-type:luminance" maskUnits="userSpaceOnUse" x="4" y="0" width="52" height="35">
<path d="M56 0H4V35H56V0Z" fill="white"/>
</mask>
<g mask="url(#mask26_117_8277)">
<path d="M40.3363 21.885C40.376 22.0187 40.376 22.4332 39.649 22.754C38.9087 23.0749 38.5783 22.8075 38.4725 22.5535C38.3007 22.1658 38.4461 21.7513 39.107 21.4706C39.411 21.3369 39.9662 21.2032 40.1777 21.5642L39.649 21.7914C39.5961 21.7246 39.4639 21.631 39.2392 21.738L39.2128 21.7513C38.8823 21.8984 38.8955 22.1257 38.9616 22.2861C39.0145 22.4198 39.1467 22.6738 39.5432 22.5C39.8076 22.3797 39.8208 22.1925 39.7944 22.139L40.3363 21.885Z" fill="#253786"/>
</g>
<mask id="mask27_117_8277" style="mask-type:luminance" maskUnits="userSpaceOnUse" x="4" y="0" width="52" height="35">
<path d="M56 0H4V35H56V0Z" fill="white"/>
</mask>
<g mask="url(#mask27_117_8277)">
<path d="M42.8742 21.1765L42.3587 21.4171L41.9357 20.7219C41.8829 20.6417 41.7903 20.4947 41.4731 20.6551C41.2484 20.762 41.1294 20.9358 41.2352 21.1096L41.6449 21.7647L41.1294 22.0053L40.1777 20.4545L40.6932 20.2139L41.0105 20.762C41.0237 20.6417 41.1823 20.4545 41.4599 20.3209C41.8432 20.1471 42.2133 20.1337 42.3719 20.3877L42.8742 21.1765Z" fill="#253786"/>
</g>
<mask id="mask28_117_8277" style="mask-type:luminance" maskUnits="userSpaceOnUse" x="4" y="0" width="52" height="35">
<path d="M56 0H4V35H56V0Z" fill="white"/>
</mask>
<g mask="url(#mask28_117_8277)">
<path d="M45.293 19.9064L44.7907 20.1604L44.2487 19.5187C44.1826 19.4385 44.0637 19.3182 43.7464 19.4786C43.5217 19.5856 43.4292 19.7594 43.5614 19.9198L44.0769 20.5214L43.5746 20.7754L42.6758 19.7193L43.1516 19.4786L43.2838 19.6257H43.297C43.3102 19.5321 43.3499 19.3316 43.7068 19.1578C44.0769 18.9706 44.4734 18.9439 44.6717 19.1711L45.293 19.9064Z" fill="#253786"/>
</g>
<mask id="mask29_117_8277" style="mask-type:luminance" maskUnits="userSpaceOnUse" x="4" y="0" width="52" height="35">
<path d="M56 0H4V35H56V0Z" fill="white"/>
</mask>
<g mask="url(#mask29_117_8277)">
<path d="M46.8532 19.0241C46.3509 19.3048 45.7297 19.3984 45.3332 19.0508C44.9234 18.7166 45.1878 18.3155 45.69 18.0348C46.1791 17.754 46.8136 17.6604 47.2233 18.008C47.6067 18.3422 47.3423 18.7433 46.8532 19.0241ZM45.928 18.2487C45.5579 18.4626 45.6768 18.6631 45.8222 18.7834C45.9676 18.9037 46.232 19.0241 46.6021 18.8235C46.9722 18.6096 46.8532 18.4091 46.7078 18.2888C46.5757 18.1685 46.2981 18.0348 45.928 18.2487Z" fill="#253786"/>
</g>
<mask id="mask30_117_8277" style="mask-type:luminance" maskUnits="userSpaceOnUse" x="4" y="0" width="52" height="35">
<path d="M56 0H4V35H56V0Z" fill="white"/>
</mask>
<g mask="url(#mask30_117_8277)">
<path d="M48.7831 17.8209L48.3073 18.1016L46.5625 16.9786L47.0384 16.6979L48.7831 17.8209Z" fill="#253786"/>
</g>
<mask id="mask31_117_8277" style="mask-type:luminance" maskUnits="userSpaceOnUse" x="4" y="0" width="52" height="35">
<path d="M56 0H4V35H56V0Z" fill="white"/>
</mask>
<g mask="url(#mask31_117_8277)">
<path d="M50.2629 16.885C49.8003 17.1791 49.1394 17.3262 48.6107 17.0722C48.0819 16.8182 48.2406 16.4305 48.7032 16.1364C49.1658 15.8422 49.8267 15.6952 50.3555 15.9492C50.8842 16.2032 50.7256 16.5909 50.2629 16.885ZM49.0204 16.2834C48.6768 16.5107 48.875 16.6711 49.0601 16.7647C49.2451 16.8583 49.5756 16.9385 49.9193 16.7112C50.2629 16.484 50.0647 16.3235 49.8796 16.2299C49.6945 16.1497 49.3773 16.0695 49.0204 16.2834Z" fill="#253786"/>
</g>
<mask id="mask32_117_8277" style="mask-type:luminance" maskUnits="userSpaceOnUse" x="4" y="0" width="52" height="35">
<path d="M56 0H4V35H56V0Z" fill="white"/>
</mask>
<g mask="url(#mask32_117_8277)">
<path d="M51.3077 14.2647L52.9732 14.7594C53.2772 14.8529 53.7663 15.0134 52.9864 15.5882C52.656 15.8289 52.1669 16.0294 51.7704 15.9358L52.2198 15.6016C52.3255 15.615 52.4445 15.615 52.6824 15.4412C52.9071 15.2807 52.8939 15.1604 52.6031 15.0802L52.3916 15.0134H52.3784C52.4445 15.107 52.4709 15.2139 52.2198 15.4011C51.8365 15.6818 51.2416 15.8021 50.6336 15.6283C50.0256 15.4412 50.0388 15.1337 50.3825 14.8797C50.6733 14.6658 50.9905 14.639 51.1491 14.639H51.1623L50.898 14.5588L51.3077 14.2647ZM51.929 15.2406C52.2066 15.0401 52.0083 14.9064 51.7704 14.8262C51.4928 14.746 51.1359 14.7594 50.898 14.9332C50.7394 15.0535 50.6997 15.2139 51.1095 15.3342C51.3342 15.4011 51.6778 15.4278 51.929 15.2406Z" fill="#253786"/>
</g>
<mask id="mask33_117_8277" style="mask-type:luminance" maskUnits="userSpaceOnUse" x="4" y="0" width="52" height="35">
<path d="M56 0H4V35H56V0Z" fill="white"/>
</mask>
<g mask="url(#mask33_117_8277)">
<path d="M54.3738 13.6096C54.9422 13.877 54.9951 13.9305 54.6778 14.1979L54.506 14.3449L54.083 14.2781L54.1623 14.2112C54.2945 14.1043 54.3474 14.0241 54.0962 13.9572L51.4658 14.0642L51.8756 13.7166L53.6732 13.6898L52.4704 13.2086L52.8669 12.8743L54.3738 13.6096Z" fill="#253786"/>
</g>
</g>
<defs>
<filter id="filter0_d_117_8277" x="0" y="0" width="60" height="43" filterUnits="userSpaceOnUse" color-interpolation-filters="sRGB">
<feFlood flood-opacity="0" result="BackgroundImageFix"/>
<feColorMatrix in="SourceAlpha" type="matrix" values="0 0 0 0 0 0 0 0 0 0 0 0 0 0 0 0 0 0 127 0" result="hardAlpha"/>
<feOffset dy="4"/>
<feGaussianBlur stdDeviation="2"/>
<feComposite in2="hardAlpha" operator="out"/>
<feColorMatrix type="matrix" values="0 0 0 0 0 0 0 0 0 0 0 0 0 0 0 0 0 0 0.25 0"/>
<feBlend mode="normal" in2="BackgroundImageFix" result="effect1_dropShadow_117_8277"/>
<feBlend mode="normal" in="SourceGraphic" in2="effect1_dropShadow_117_8277" result="shape"/>
</filter>
<clipPath id="clip0_117_8277">
<rect width="52" height="35" fill="white" transform="translate(4)"/>
</clipPath>
</defs>
</svg>
