<svg width="60" height="22" viewBox="0 0 60 22" fill="none" xmlns="http://www.w3.org/2000/svg">
<mask id="mask0_117_8205" style="mask-type:luminance" maskUnits="userSpaceOnUse" x="0" y="0" width="60" height="22">
<path d="M60 0.5H0V21.5H60V0.5Z" fill="white"/>
</mask>
<g mask="url(#mask0_117_8205)">
<path d="M21.6719 2.58523L21.8211 1.87537H22.2987L22.4181 1.29861L23.5375 0.633118L23.2838 1.86058H23.8808L23.7316 2.57044H23.1346L22.8211 4.0641C22.7614 4.3303 22.7316 4.49298 22.7316 4.53734L22.8062 4.71481L23.0599 4.77396C23.1047 4.77396 23.2092 4.75917 23.3883 4.74439L23.239 5.45424C23.0749 5.48382 22.8958 5.49861 22.7167 5.49861C22.3734 5.49861 22.1196 5.43946 21.9704 5.30636C21.8062 5.17326 21.7316 4.99579 21.7316 4.75917C21.7316 4.64086 21.7764 4.38946 21.851 3.99016L22.1495 2.55565H21.6719V2.58523Z" fill="#585757"/>
</g>
<mask id="mask1_117_8205" style="mask-type:luminance" maskUnits="userSpaceOnUse" x="0" y="0" width="60" height="22">
<path d="M60 0.5H0V21.5H60V0.5Z" fill="white"/>
</mask>
<g mask="url(#mask1_117_8205)">
<path d="M24.5073 1.86056H25.4774L24.7162 5.43944H23.7461L24.5073 1.86056ZM24.7909 0.5H25.761L25.5819 1.37254H24.6118L24.7909 0.5Z" fill="#585757"/>
</g>
<mask id="mask2_117_8205" style="mask-type:luminance" maskUnits="userSpaceOnUse" x="0" y="0" width="60" height="22">
<path d="M60 0.5H0V21.5H60V0.5Z" fill="white"/>
</mask>
<g mask="url(#mask2_117_8205)">
<path d="M26.4184 1.86052H27.3289L27.2393 2.2894C27.5975 1.94925 27.9707 1.77179 28.3736 1.77179C28.6423 1.77179 28.8513 1.83094 29.0005 1.93447C29.1498 2.05278 29.2393 2.20066 29.2841 2.4077C29.4035 2.23024 29.5826 2.08235 29.8214 1.94925C30.0602 1.83094 30.299 1.77179 30.5527 1.77179C30.8363 1.77179 31.0602 1.84573 31.2244 1.99362C31.3886 2.14151 31.4632 2.34855 31.4632 2.59996C31.4632 2.71827 31.4333 2.9401 31.3736 3.23587L30.911 5.42461H29.9408L30.4035 3.23587C30.4632 2.95489 30.493 2.807 30.493 2.76263L30.4035 2.52601L30.1348 2.43728C29.896 2.43728 29.6722 2.57038 29.4781 2.82179C29.3438 2.99925 29.2244 3.32461 29.1199 3.78306L28.7766 5.40982H27.8065L28.2692 3.25066C28.3139 2.99925 28.3438 2.83658 28.3438 2.76263L28.2542 2.52601L27.9856 2.43728L27.6274 2.57038L27.3289 2.83658C27.2393 2.9401 27.1647 3.08799 27.105 3.26545C27.0751 3.3394 27.0304 3.53165 26.9707 3.81263L26.6274 5.45418H25.6572L26.4184 1.86052Z" fill="#585757"/>
</g>
<mask id="mask3_117_8205" style="mask-type:luminance" maskUnits="userSpaceOnUse" x="0" y="0" width="60" height="22">
<path d="M60 0.5H0V21.5H60V0.5Z" fill="white"/>
</mask>
<g mask="url(#mask3_117_8205)">
<path d="M33.2534 2.88099L32.2982 2.80704C32.4027 2.48169 32.5967 2.23028 32.8654 2.05282C33.134 1.87535 33.4922 1.78662 33.94 1.78662C34.4027 1.78662 34.746 1.87535 34.9699 2.06761C35.1937 2.25986 35.2982 2.48169 35.2982 2.74789L35.2684 3.08803C35.2534 3.20634 35.1788 3.53169 35.0594 4.0493C34.9699 4.47817 34.9102 4.77395 34.9102 4.95141C34.9102 5.0993 34.94 5.27676 34.9997 5.45423H34.0445C33.9997 5.32113 33.9848 5.18803 33.9699 5.05493C33.8206 5.21761 33.6564 5.33592 33.4773 5.40986C33.3281 5.4838 33.134 5.52817 32.9549 5.52817C32.6564 5.52817 32.4027 5.42465 32.2087 5.2324C32.0146 5.04014 31.9102 4.78873 31.9102 4.47817C31.9102 4.13803 32.0146 3.85704 32.2385 3.66479C32.4475 3.45775 32.8355 3.33944 33.3878 3.29507C33.8505 3.25071 34.1639 3.20634 34.3281 3.16197C34.3728 3.02887 34.3878 2.92535 34.3878 2.83662L34.2534 2.57042C34.1639 2.49648 34.0445 2.4669 33.8803 2.4669C33.7012 2.4669 33.5669 2.49648 33.4624 2.57042L33.2534 2.88099ZM34.1937 3.76831L33.9549 3.81268C33.4624 3.87183 33.149 3.96057 32.9997 4.06409C32.8803 4.15282 32.8355 4.25634 32.8355 4.40423L32.9549 4.68521L33.2833 4.80352C33.4325 4.80352 33.5669 4.77395 33.7012 4.7L33.9997 4.4338C34.0594 4.31549 34.1191 4.15282 34.1639 3.9162L34.1937 3.76831Z" fill="#585757"/>
</g>
<mask id="mask4_117_8205" style="mask-type:luminance" maskUnits="userSpaceOnUse" x="0" y="0" width="60" height="22">
<path d="M60 0.5H0V21.5H60V0.5Z" fill="white"/>
</mask>
<g mask="url(#mask4_117_8205)">
<path d="M36 2.58517L36.1493 1.87531H36.6269L36.7463 1.29855L37.8657 0.633057L37.6119 1.86052H38.209L38.0597 2.57038H37.4627L37.1493 4.06404C37.0895 4.33024 37.0597 4.49292 37.0597 4.53728L37.1343 4.71475L37.3881 4.7739C37.4328 4.7739 37.5373 4.75911 37.7164 4.74432L37.5672 5.45418C37.403 5.48376 37.2239 5.49855 37.0448 5.49855C36.7015 5.49855 36.4478 5.43939 36.2985 5.3063C36.1493 5.1732 36.0597 4.99573 36.0597 4.75911C36.0597 4.6408 36.1045 4.38939 36.1791 3.9901L36.4776 2.55559H36V2.58517Z" fill="#585757"/>
</g>
<mask id="mask5_117_8205" style="mask-type:luminance" maskUnits="userSpaceOnUse" x="0" y="0" width="60" height="22">
<path d="M60 0.5H0V21.5H60V0.5Z" fill="white"/>
</mask>
<g mask="url(#mask5_117_8205)">
<path d="M41.5968 3.94578H39.149V4.03451C39.149 4.27113 39.2236 4.46338 39.358 4.61127C39.4923 4.75916 39.6565 4.8331 39.8654 4.8331C40.1938 4.8331 40.4475 4.67042 40.6266 4.33028L41.5072 4.47817C41.343 4.81831 41.1042 5.08451 40.8206 5.26197C40.5371 5.43944 40.2236 5.52817 39.8654 5.52817C39.3729 5.52817 38.9848 5.38028 38.6863 5.06972C38.3878 4.75916 38.2236 4.35986 38.2236 3.85704C38.2236 3.36902 38.358 2.92535 38.6415 2.55564C39.0147 2.03803 39.552 1.78662 40.2386 1.78662C40.6863 1.78662 41.0296 1.91972 41.2983 2.18592C41.5669 2.45211 41.6863 2.83662 41.6863 3.32465C41.6714 3.56127 41.6415 3.76831 41.5968 3.94578ZM40.7759 3.36902V3.26549C40.7759 2.9993 40.7162 2.80704 40.5968 2.67395C40.4774 2.54085 40.3132 2.48169 40.1192 2.48169C39.9102 2.48169 39.7311 2.55564 39.5818 2.70352C39.4177 2.85141 39.3132 3.07324 39.2535 3.36902H40.7759Z" fill="#585757"/>
</g>
<mask id="mask6_117_8205" style="mask-type:luminance" maskUnits="userSpaceOnUse" x="0" y="0" width="60" height="22">
<path d="M60 0.5H0V21.5H60V0.5Z" fill="white"/>
</mask>
<g mask="url(#mask6_117_8205)">
<path d="M45.2985 5.43944H44.3731L44.4627 5.05493C44.2836 5.21761 44.1045 5.3507 43.9403 5.40986C43.7761 5.4838 43.5821 5.51338 43.3582 5.51338C42.9851 5.51338 42.6866 5.38028 42.4478 5.12887C42.209 4.87746 42.1045 4.50775 42.1045 4.00493C42.1045 3.42817 42.2687 2.91056 42.597 2.45211C42.9254 1.99366 43.3582 1.75704 43.8955 1.75704C44.3731 1.75704 44.7463 1.9493 44.9851 2.3338L45.3582 0.5H46.3284L45.2985 5.43944ZM43.0299 3.99014C43.0299 4.24155 43.0896 4.44859 43.2239 4.59648C43.3582 4.74437 43.5075 4.81831 43.7015 4.81831C43.8806 4.81831 44.0448 4.75915 44.194 4.64084C44.3433 4.52254 44.4627 4.33028 44.5672 4.09366C44.6567 3.84225 44.7015 3.60563 44.7015 3.3838C44.7015 3.13239 44.6269 2.91056 44.4926 2.76268C44.3433 2.6 44.194 2.52606 44 2.52606C43.7164 2.52606 43.4776 2.68873 43.2985 2.9993C43.1343 3.28028 43.0299 3.62042 43.0299 3.99014Z" fill="#585757"/>
</g>
<mask id="mask7_117_8205" style="mask-type:luminance" maskUnits="userSpaceOnUse" x="0" y="0" width="60" height="22">
<path d="M60 0.5H0V21.5H60V0.5Z" fill="white"/>
</mask>
<g mask="url(#mask7_117_8205)">
<path d="M35.2978 19.6218C33.9545 18.8085 33.2829 17.4331 33.2978 15.688C33.2978 15.2 33.3426 14.6824 33.4471 14.1352C33.9694 11.1627 35.5366 9.58028 37.0441 8.78169C38.5515 7.9831 39.9694 7.93873 40.2829 7.93873H44.8351L44.9396 7.37676L45.0292 6.88873H44.5366H39.9545C39.6709 6.88873 33.0889 6.97747 31.8053 14.1944C31.1486 17.9359 32.6411 19.7106 34.0142 20.5535C35.5068 21.4704 37.1784 21.5 37.3575 21.5H37.3724H41.9993H42.4918L42.5814 21.012L42.6859 20.45H38.1933C38.0889 20.4352 36.6262 20.4352 35.2978 19.6218Z" fill="black"/>
</g>
<mask id="mask8_117_8205" style="mask-type:luminance" maskUnits="userSpaceOnUse" x="0" y="0" width="60" height="22">
<path d="M60 0.5H0V21.5H60V0.5Z" fill="white"/>
</mask>
<g mask="url(#mask8_117_8205)">
<path d="M37.3434 9.34366C35.9852 10.0683 34.5673 11.4437 34.0748 14.2387C33.9852 14.7563 33.9404 15.2444 33.9404 15.6732C33.9554 17.2852 34.5076 18.3648 35.6419 19.0746C36.7762 19.7697 38.1345 19.7993 38.1643 19.7845H42.7613L42.8807 19.1338L42.9703 18.6458H42.4777H38.2986C36.418 18.6458 35.2389 16.6345 35.6718 14.1796C36.1046 11.7246 38.0001 9.71338 39.8957 9.71338H44.0151H44.5076L44.5971 9.22535L44.7165 8.57465H40.2837C40.03 8.58943 38.7016 8.61901 37.3434 9.34366Z" fill="black"/>
</g>
<mask id="mask9_117_8205" style="mask-type:luminance" maskUnits="userSpaceOnUse" x="0" y="0" width="60" height="22">
<path d="M60 0.5H0V21.5H60V0.5Z" fill="white"/>
</mask>
<g mask="url(#mask9_117_8205)">
<path d="M22.8358 19.6218C21.5074 18.8085 20.8209 17.4331 20.8358 15.688C20.8358 15.2 20.8806 14.6824 20.9851 14.1352C21.5074 11.1627 23.0746 9.58028 24.5821 8.78169C26.0895 7.9831 27.5074 7.93873 27.8209 7.93873H32.3731L32.4776 7.37676L32.5671 6.88873H32.0746H27.4627C27.1791 6.88873 20.597 6.97747 19.3134 14.1944C18.6418 17.9359 20.1492 19.7106 21.5224 20.5535C23.0149 21.4704 24.6865 21.5 24.8657 21.5H24.8806H29.5074H30L30.0895 21.012L30.194 20.45H25.7015C25.6119 20.4352 24.1642 20.4352 22.8358 19.6218Z" fill="black"/>
</g>
<mask id="mask10_117_8205" style="mask-type:luminance" maskUnits="userSpaceOnUse" x="0" y="0" width="60" height="22">
<path d="M60 0.5H0V21.5H60V0.5Z" fill="white"/>
</mask>
<g mask="url(#mask10_117_8205)">
<path d="M27.4181 9.72815H31.5375H32.0301L32.1196 9.24012L32.239 8.58942H27.8062C27.5524 8.58942 26.2241 8.63378 24.8659 9.35843C23.5077 10.0831 22.1047 11.4584 21.5972 14.2535C21.5077 14.7711 21.4629 15.2443 21.4629 15.688C21.4778 17.3 22.0301 18.3796 23.1644 19.0746C24.2987 19.7845 25.6718 19.7993 25.7017 19.7993H30.2987L30.4181 19.1486L30.5077 18.6605H30.0151H25.836C23.9554 18.6605 22.7763 16.6493 23.2092 14.1943C23.642 11.7246 25.5226 9.72815 27.4181 9.72815Z" fill="black"/>
</g>
<mask id="mask11_117_8205" style="mask-type:luminance" maskUnits="userSpaceOnUse" x="0" y="0" width="60" height="22">
<path d="M60 0.5H0V21.5H60V0.5Z" fill="white"/>
</mask>
<g mask="url(#mask11_117_8205)">
<path d="M50.4624 21.5C45.8206 21.5 43.6415 18.7345 44.4923 13.9282C45.358 9.10705 48.5072 6.34155 53.1639 6.34155C57.8206 6.34155 59.9997 9.10705 59.149 13.9282C58.2833 18.7345 55.1192 21.5 50.4624 21.5ZM52.6565 9.1662C49.4774 9.1662 48.5968 12.7894 48.3878 13.9134C47.9699 16.2796 48.5968 18.6754 50.955 18.6754C53.4923 18.6754 54.8505 16.1169 55.2386 13.9134C55.4475 12.8042 55.8356 9.1662 52.6565 9.1662Z" fill="black"/>
</g>
<mask id="mask12_117_8205" style="mask-type:luminance" maskUnits="userSpaceOnUse" x="0" y="0" width="60" height="22">
<path d="M60 0.5H0V21.5H60V0.5Z" fill="white"/>
</mask>
<g mask="url(#mask12_117_8205)">
<path d="M50.7016 20.4352H50.6867C48.9106 20.4352 47.6867 19.8585 46.9404 18.9416C46.1942 18.0247 45.9404 16.8268 45.9404 15.6289C45.9404 15.0373 46.0001 14.4458 46.1046 13.869C46.5971 10.9852 48.418 7.39157 52.9255 7.40636C54.7165 7.40636 55.9554 7.98312 56.7016 8.90002C57.4479 9.81692 57.7016 11.0148 57.7165 12.2275C57.7165 12.819 57.6568 13.4106 57.5524 13.9873C57.0449 16.8564 55.224 20.4352 50.7016 20.4352ZM50.7016 19.7993C54.8061 19.7993 56.3882 16.6345 56.8957 13.8542C56.9852 13.3071 57.0449 12.7599 57.0449 12.2127C57.0449 11.0888 56.8061 10.0388 56.1792 9.29931C55.5673 8.54509 54.5673 8.04227 52.8957 8.04227C48.8061 8.04227 47.224 11.2071 46.7165 13.9873C46.627 14.5345 46.5673 15.0817 46.5673 15.6437C46.5673 16.7676 46.8061 17.8028 47.433 18.5571C48.0449 19.2817 49.0449 19.7993 50.7016 19.7993Z" fill="white"/>
</g>
<mask id="mask13_117_8205" style="mask-type:luminance" maskUnits="userSpaceOnUse" x="0" y="0" width="60" height="22">
<path d="M60 0.5H0V21.5H60V0.5Z" fill="white"/>
</mask>
<g mask="url(#mask13_117_8205)">
<path d="M20.835 2.08239H15.2679C14.2529 2.08239 13.85 2.80704 13.7455 3.36901C13.641 3.96056 13.835 4.67042 14.8052 4.67042H17.5515C19.447 4.67042 20.6261 5.49859 20.2679 7.48028C19.9097 9.47676 18.4171 10.4085 16.5365 10.4085H10.3574L10.641 8.82606H16.2231C17.0738 8.82606 17.7604 8.30845 17.9097 7.48028C18.0589 6.6669 17.5515 6.1493 16.7007 6.1493H14.0738C12.1335 6.1493 11.1037 5.02535 11.4022 3.36901C11.7156 1.63873 13.1335 0.5 15.0738 0.5H21.1037L20.835 2.08239Z" fill="#1C9CD8"/>
</g>
<mask id="mask14_117_8205" style="mask-type:luminance" maskUnits="userSpaceOnUse" x="0" y="0" width="60" height="22">
<path d="M60 0.5H0V21.5H60V0.5Z" fill="white"/>
</mask>
<g mask="url(#mask14_117_8205)">
<path d="M7.86536 0.5C9.28327 0.5 10.8504 1.43169 10.4624 3.63521C10.0295 5.98662 8.2982 6.57817 6.77581 6.57817H2.58178L2.38775 7.64296C2.26835 8.35282 2.89521 8.82606 3.52208 8.82606H8.83551L8.56685 10.3937H2.26835C1.56686 10.3937 0.925064 10.0683 0.537004 9.52113C0.16387 9.06268 -0.000309013 8.39718 0.104169 7.79084L0.939989 3.07324C1.05939 2.39296 1.4176 1.75704 2.01462 1.26901C2.58178 0.810563 3.34297 0.5 4.02954 0.5H7.86536ZM3.14894 3.41338L2.85044 5.02535H6.50715C7.70118 5.02535 7.96984 4.25634 8.08924 3.63521C8.20865 2.9993 8.22357 2.08239 7.04447 2.08239H4.73103C4.01462 2.08239 3.26835 2.70352 3.14894 3.41338Z" fill="#00913E"/>
</g>
</svg>
