<svg width="47" height="34" viewBox="0 0 47 34" fill="none" xmlns="http://www.w3.org/2000/svg">
<g clip-path="url(#clip0_117_8420)">
<mask id="mask0_117_8420" style="mask-type:luminance" maskUnits="userSpaceOnUse" x="0" y="0" width="47" height="34">
<path d="M47 0H0V34H47V0Z" fill="white"/>
</mask>
<g mask="url(#mask0_117_8420)">
<path d="M46.8694 21.1902L46.5596 20.7535C41.3175 13.1841 35.3725 8.38041 29.0821 6.59203H29.0701C28.6293 6.46726 28.1766 6.36329 27.7358 6.25931L27.6286 6.23852C27.2116 6.15534 26.7827 6.07216 26.3657 6.00977C26.2346 5.98898 26.0917 5.96818 25.9606 5.96818C25.627 5.92659 25.2935 5.885 24.9718 5.8642C24.4833 5.82261 23.9949 5.80182 23.5064 5.80182C23.0179 5.80182 22.5295 5.82261 22.041 5.84341C21.7074 5.8642 21.3738 5.90579 21.0521 5.94738C20.9211 5.96818 20.7781 5.96818 20.6471 5.98898C20.2182 6.07216 19.8012 6.15534 19.3723 6.23852L19.277 6.25931C18.8243 6.36329 18.3834 6.46726 17.9307 6.59203H17.9188C11.5807 8.40121 5.56418 13.2673 0.298276 20.9822L0.143396 21.211C0.0361716 21.3774 -0.0233975 21.6269 0.012344 21.8764L0.119568 22.2092L0.286362 22.3755C2.6453 23.54 5.03997 24.5174 7.44656 25.3076C8.41158 25.6196 9.3766 25.9107 10.3416 26.181C14.6902 27.3663 19.0983 27.9486 23.5064 27.9486C24.4833 27.9486 25.4722 27.9278 26.4491 27.8654C33.2995 27.4495 40.1142 25.6196 46.7264 22.3755C46.8694 22.3131 46.9766 22.1052 47.0004 21.8556C47.0243 21.6061 46.9766 21.3566 46.8694 21.1902Z" fill="white"/>
</g>
<mask id="mask1_117_8420" style="mask-type:luminance" maskUnits="userSpaceOnUse" x="0" y="0" width="47" height="34">
<path d="M47 0H0V34H47V0Z" fill="white"/>
</mask>
<g mask="url(#mask1_117_8420)">
<path d="M9.54295 29.9242L10.0672 28.115H10.0791L10.3054 30.0905L9.54295 29.9242ZM10.3888 30.6312L10.5437 31.9413L10.913 32.0245L10.3293 27.5535L9.93611 27.4496L8.70898 31.5462L9.05448 31.6086L9.39999 30.4233L10.3888 30.6312Z" fill="#009F8F"/>
</g>
<mask id="mask2_117_8420" style="mask-type:luminance" maskUnits="userSpaceOnUse" x="0" y="0" width="47" height="34">
<path d="M47 0H0V34H47V0Z" fill="white"/>
</mask>
<g mask="url(#mask2_117_8420)">
<path d="M11.4971 32.1076L11.1992 32.066L11.3898 28.9468L11.6758 28.9884L11.64 29.5082H11.6519C11.7949 29.1547 11.9617 28.9468 12.1881 28.9884L12.2595 29.03L12.2238 29.5706L12.1166 29.5498C11.8307 29.5082 11.6281 29.841 11.6043 30.2985L11.4971 32.1076Z" fill="#009F8F"/>
</g>
<mask id="mask3_117_8420" style="mask-type:luminance" maskUnits="userSpaceOnUse" x="0" y="0" width="47" height="34">
<path d="M47 0H0V34H47V0Z" fill="white"/>
</mask>
<g mask="url(#mask3_117_8420)">
<path d="M12.6172 32.3156L12.3193 32.274L12.498 29.1339L12.784 29.1755L12.7601 29.6954H12.7721C12.915 29.3419 13.0818 29.1339 13.3082 29.1755L13.3797 29.2171L13.3439 29.7578L13.2248 29.737C12.9389 29.6954 12.7482 30.0489 12.7125 30.5064L12.6172 32.3156Z" fill="#009F8F"/>
</g>
<mask id="mask4_117_8420" style="mask-type:luminance" maskUnits="userSpaceOnUse" x="0" y="0" width="47" height="34">
<path d="M47 0H0V34H47V0Z" fill="white"/>
</mask>
<g mask="url(#mask4_117_8420)">
<path d="M14.8568 32.6691L14.559 32.6275L14.6543 30.5688C14.6781 30.1529 14.6185 29.8618 14.3326 29.8202C14.0824 29.7786 13.8203 29.9865 13.7846 30.7975L13.7012 32.5027L13.4033 32.4611L13.6059 28.1566L13.9037 28.1981L13.8322 29.7786H13.8441C13.9394 29.5914 14.1062 29.3003 14.3922 29.3419C14.6662 29.3835 15.0117 29.633 14.964 30.5272L14.8568 32.6691Z" fill="#009F8F"/>
</g>
<mask id="mask5_117_8420" style="mask-type:luminance" maskUnits="userSpaceOnUse" x="0" y="0" width="47" height="34">
<path d="M47 0H0V34H47V0Z" fill="white"/>
</mask>
<g mask="url(#mask5_117_8420)">
<path d="M16.4289 29.6954L16.7625 29.737C16.5123 30.7352 16.2621 31.7334 15.9881 32.7315C15.6545 33.9792 15.6187 34.0416 15.2256 34L15.1064 33.9376L15.1303 33.4593L15.309 33.5425C15.4639 33.5633 15.4877 33.4801 15.6545 32.8563L15.1184 29.5499L15.4639 29.5915L15.8451 32.2116H15.857L16.4289 29.6954Z" fill="#009F8F"/>
</g>
<mask id="mask6_117_8420" style="mask-type:luminance" maskUnits="userSpaceOnUse" x="0" y="0" width="47" height="34">
<path d="M47 0H0V34H47V0Z" fill="white"/>
</mask>
<g mask="url(#mask6_117_8420)">
<path d="M17.3349 30.2361L17.2635 32.274C17.2516 32.5236 17.3707 32.5236 17.4422 32.5444L17.5494 32.5652L17.5375 32.9811C17.4303 32.9811 17.3349 33.0018 17.3111 33.0018C17.0133 32.9811 16.9537 32.6691 16.9656 32.2948L17.0371 30.2153L16.7988 30.1945L16.8107 29.7578L17.0609 29.7786L17.0848 28.9052L17.3826 28.926L17.3588 29.7994L17.6447 29.8202L17.6328 30.2569L17.3349 30.2361Z" fill="#009F8F"/>
</g>
<mask id="mask7_117_8420" style="mask-type:luminance" maskUnits="userSpaceOnUse" x="0" y="0" width="47" height="34">
<path d="M47 0H0V34H47V0Z" fill="white"/>
</mask>
<g mask="url(#mask7_117_8420)">
<path d="M19.2769 33.1058L18.9791 33.085L19.0267 31.0263C19.0386 30.5896 18.9791 30.3192 18.6812 30.2985C18.431 30.2777 18.1689 30.5064 18.157 31.2966L18.1094 33.0018L17.8115 32.981L17.9187 28.6556L18.2285 28.6764L18.1928 30.2777H18.2047C18.3 30.0905 18.4549 29.7786 18.7408 29.7994C19.0267 29.8202 19.3603 30.0489 19.3484 30.9431L19.2769 33.1058Z" fill="#009F8F"/>
</g>
<mask id="mask8_117_8420" style="mask-type:luminance" maskUnits="userSpaceOnUse" x="0" y="0" width="47" height="34">
<path d="M47 0H0V34H47V0Z" fill="white"/>
</mask>
<g mask="url(#mask8_117_8420)">
<path d="M19.7535 29.9865L20.0394 30.0073L20.0275 30.444H20.0394C20.1109 30.2777 20.2658 29.9242 20.5875 29.9242C20.9092 29.945 21.0045 30.2777 21.064 30.444C21.2189 30.1529 21.3381 29.945 21.624 29.945C21.8146 29.945 22.1839 30.1321 22.172 31.0263L22.1482 33.2098L21.8503 33.189L21.8623 31.1927C21.8742 30.756 21.7908 30.4648 21.5406 30.444C21.2904 30.4232 21.1117 30.8391 21.1117 31.2758L21.0879 33.189L20.79 33.1682L20.8138 30.9847C20.8138 30.7144 20.7662 30.4024 20.5398 30.3817C20.3611 30.3817 20.0633 30.548 20.0514 31.4006L20.0275 33.1058L19.7178 33.085L19.7535 29.9865Z" fill="#009F8F"/>
</g>
<mask id="mask9_117_8420" style="mask-type:luminance" maskUnits="userSpaceOnUse" x="0" y="0" width="47" height="34">
<path d="M47 0H0V34H47V0Z" fill="white"/>
</mask>
<g mask="url(#mask9_117_8420)">
<path d="M22.875 33.2306H22.5771L22.5891 30.0905H22.8869L22.875 33.2306ZM22.5771 29.5083V28.9052H22.8869V29.5083H22.5771Z" fill="#009F8F"/>
</g>
<mask id="mask10_117_8420" style="mask-type:luminance" maskUnits="userSpaceOnUse" x="0" y="0" width="47" height="34">
<path d="M47 0H0V34H47V0Z" fill="white"/>
</mask>
<g mask="url(#mask10_117_8420)">
<path d="M24.3877 32.1285C24.3877 32.5444 24.1137 32.8771 23.8277 32.8771C23.6014 32.8771 23.4941 32.6691 23.4941 32.3364C23.4941 31.9413 23.7324 31.8581 23.8754 31.8165C24.2447 31.7333 24.3281 31.671 24.3758 31.6086L24.3877 32.1285ZM23.5537 31.0263C23.5775 30.7768 23.6252 30.4233 23.9707 30.4233C24.2566 30.4233 24.3996 30.5896 24.3996 30.9223C24.3996 31.2343 24.3162 31.2759 24.2447 31.2966L23.7443 31.4006C23.2439 31.5046 23.1963 32.1285 23.1963 32.3988C23.1963 32.9395 23.4346 33.293 23.7682 33.293C24.1256 33.293 24.3043 33.0018 24.4234 32.7731C24.4234 33.0434 24.4711 33.2722 24.7332 33.2722L24.9 33.2098V32.8147L24.8047 32.8355L24.7093 32.6483L24.6974 30.8392C24.6974 30.0281 24.1732 29.9658 24.0303 29.9658C23.5894 29.9658 23.3035 30.2777 23.2916 31.0263H23.5537Z" fill="#009F8F"/>
</g>
<mask id="mask11_117_8420" style="mask-type:luminance" maskUnits="userSpaceOnUse" x="0" y="0" width="47" height="34">
<path d="M47 0H0V34H47V0Z" fill="white"/>
</mask>
<g mask="url(#mask11_117_8420)">
<path d="M26.6156 31.359L26.973 29.4251H26.9849L27.39 31.2966L26.6156 31.359ZM27.5091 31.8165L27.7832 33.0642L28.1525 33.0434L27.1636 28.7804L26.7824 28.8012L25.9365 33.1682L26.282 33.1474L26.5084 31.8789L27.5091 31.8165Z" fill="#009F8F"/>
</g>
<mask id="mask12_117_8420" style="mask-type:luminance" maskUnits="userSpaceOnUse" x="0" y="0" width="47" height="34">
<path d="M47 0H0V34H47V0Z" fill="white"/>
</mask>
<g mask="url(#mask12_117_8420)">
<path d="M29.88 32.8771L29.5822 32.8979L29.5226 30.9639C29.4988 30.4232 29.4035 30.1529 29.1056 30.1737C28.9389 30.1945 28.641 30.4024 28.6648 31.2758L28.7244 32.981L28.4146 33.0018L28.3193 29.8618L28.6053 29.841L28.6172 30.2777H28.6291C28.6887 30.1113 28.8435 29.7162 29.1533 29.6954C29.4273 29.6746 29.7847 29.841 29.8205 30.7352L29.88 32.8771Z" fill="#009F8F"/>
</g>
<mask id="mask13_117_8420" style="mask-type:luminance" maskUnits="userSpaceOnUse" x="0" y="0" width="47" height="34">
<path d="M47 0H0V34H47V0Z" fill="white"/>
</mask>
<g mask="url(#mask13_117_8420)">
<path d="M31.3813 31.5878C31.3933 32.0037 31.1431 32.3572 30.8571 32.3988C30.6308 32.4196 30.5235 32.2324 30.5116 31.8997C30.4997 31.5046 30.7261 31.4006 30.881 31.3382C31.2503 31.2135 31.3218 31.1511 31.3694 31.0679L31.3813 31.5878ZM30.4997 30.6104C30.5116 30.3609 30.5474 29.9865 30.8929 29.945C31.1788 29.9034 31.3218 30.0697 31.3337 30.4025C31.3456 30.7144 31.2622 30.7768 31.1907 30.7976L30.6903 30.9639C30.19 31.1303 30.178 31.7541 30.19 32.0245C30.2138 32.5651 30.464 32.8979 30.7976 32.8563C31.1431 32.8147 31.3218 32.5028 31.429 32.274C31.4528 32.5028 31.5005 32.7523 31.7745 32.7107L31.9413 32.6275L31.9294 32.2532L31.8341 32.2948L31.7268 32.1284L31.6554 30.3193C31.6196 29.5083 31.0954 29.5083 30.9524 29.5291C30.5116 29.5914 30.2376 29.9034 30.2495 30.6728L30.4997 30.6104Z" fill="#009F8F"/>
</g>
<mask id="mask14_117_8420" style="mask-type:luminance" maskUnits="userSpaceOnUse" x="-2" y="-3" width="50" height="42">
<path d="M46.4966 -2.02001L-1.32422 11.8645L-0.69981 38.6242L47.1211 24.7397L46.4966 -2.02001Z" fill="white"/>
</mask>
<g mask="url(#mask14_117_8420)">
<path d="M32.3663 28.2228L31.9951 28.2992L32.1368 32.578L32.508 32.5017L32.3663 28.2228Z" fill="#009F8F"/>
</g>
<mask id="mask15_117_8420" style="mask-type:luminance" maskUnits="userSpaceOnUse" x="0" y="0" width="47" height="34">
<path d="M47 0H0V34H47V0Z" fill="white"/>
</mask>
<g mask="url(#mask15_117_8420)">
<path d="M33.8592 29.1547L34.1927 29.0923C34.0379 30.1529 33.883 31.2134 33.7162 32.274C33.5017 33.5841 33.4779 33.6673 33.0848 33.7297L32.9537 33.7089L32.9299 33.2306L33.1205 33.2514C33.2754 33.2306 33.2873 33.1474 33.3945 32.4819L32.5605 29.3835L32.906 29.3211L33.5256 31.7957H33.5375L33.8592 29.1547Z" fill="#009F8F"/>
</g>
<mask id="mask16_117_8420" style="mask-type:luminance" maskUnits="userSpaceOnUse" x="0" y="0" width="47" height="34">
<path d="M47 0H0V34H47V0Z" fill="white"/>
</mask>
<g mask="url(#mask16_117_8420)">
<path d="M35.4914 29.7578C35.4795 29.5499 35.4199 29.2379 35.0386 29.3211C34.9433 29.3419 34.6812 29.4459 34.7051 29.841C34.717 30.0905 34.8123 30.1321 35.0506 30.1945L35.3603 30.2777C35.7416 30.3609 35.8845 30.5896 35.9203 31.0055C35.956 31.6502 35.682 32.1077 35.2769 32.17C34.5621 32.3156 34.4668 31.6086 34.431 31.2135L34.717 31.1511C34.7408 31.4006 34.8123 31.7749 35.2293 31.6918C35.4437 31.6502 35.6343 31.463 35.6105 31.1095C35.5986 30.8599 35.4914 30.7976 35.2293 30.7352L34.8718 30.652C34.6097 30.5896 34.431 30.4025 34.4072 29.9658C34.3596 29.2795 34.6693 28.9052 35.0267 28.8428C35.6701 28.7181 35.7654 29.5291 35.7773 29.6954L35.4914 29.7578Z" fill="#009F8F"/>
</g>
<mask id="mask17_117_8420" style="mask-type:luminance" maskUnits="userSpaceOnUse" x="0" y="0" width="47" height="34">
<path d="M47 0H0V34H47V0Z" fill="white"/>
</mask>
<g mask="url(#mask17_117_8420)">
<path d="M36.5877 31.7957L36.2898 31.8581L36.0754 28.7389L36.3732 28.6765L36.5877 31.7957ZM36.0396 28.1566L36.0039 27.5535L36.3018 27.4911L36.3494 28.0942L36.0396 28.1566Z" fill="#009F8F"/>
</g>
<mask id="mask18_117_8420" style="mask-type:luminance" maskUnits="userSpaceOnUse" x="0" y="0" width="47" height="34">
<path d="M47 0H0V34H47V0Z" fill="white"/>
</mask>
<g mask="url(#mask18_117_8420)">
<path d="M37.8501 29.2379C37.8382 29.0508 37.7667 28.718 37.3855 28.8012C37.2902 28.822 37.04 28.9468 37.0638 29.3211C37.0876 29.5706 37.1829 29.6122 37.4212 29.6746L37.731 29.737C38.1122 29.8202 38.2671 30.0281 38.2909 30.444C38.3386 31.0887 38.0646 31.5462 37.6595 31.6293C36.9566 31.7957 36.8494 31.0887 36.8017 30.7144L37.0876 30.652C37.1115 30.9015 37.1829 31.2758 37.6118 31.1926C37.8263 31.1511 38.005 30.9431 37.9812 30.6104C37.9573 30.3608 37.862 30.2985 37.588 30.2361L37.2306 30.1737C36.9685 30.1321 36.7898 29.9449 36.7541 29.5082C36.7064 28.822 37.0042 28.4269 37.3617 28.3645C38.005 28.2189 38.1122 29.03 38.1241 29.1755L37.8501 29.2379Z" fill="#009F8F"/>
</g>
<mask id="mask19_117_8420" style="mask-type:luminance" maskUnits="userSpaceOnUse" x="0" y="0" width="47" height="34">
<path d="M47 0H0V34H47V0Z" fill="white"/>
</mask>
<g mask="url(#mask19_117_8420)">
<path d="M16.882 13.6832C16.4769 13.1633 15.9765 12.893 15.3689 12.893C14.8447 12.893 14.3681 13.1841 13.9512 13.7456C13.5223 14.307 13.2482 15.0349 13.1172 15.9291H17.7278C17.561 14.9517 17.287 14.2031 16.882 13.6832Z" fill="#009F8F"/>
</g>
<mask id="mask20_117_8420" style="mask-type:luminance" maskUnits="userSpaceOnUse" x="0" y="0" width="47" height="34">
<path d="M47 0H0V34H47V0Z" fill="white"/>
</mask>
<g mask="url(#mask20_117_8420)">
<path d="M46.8689 21.1902C43.4496 16.137 39.7087 12.3107 35.7652 9.73212V24.2679H35.1338V25.3492H32.3936V8.65078H29.0816V6.59206C27.2469 6.07219 25.3883 5.80185 23.5059 5.80185C15.0471 5.80185 6.96954 11.1254 0.142925 21.1902C0.0357002 21.3566 -0.011955 21.6061 0.0118726 21.8557C0.0476141 22.1052 0.142925 22.2924 0.28589 22.3755C7.85116 26.0771 15.6666 27.9486 23.5059 27.9486C31.3452 27.9486 39.1607 26.0771 46.7259 22.3755C46.8689 22.3132 46.9761 22.1052 47 21.8557C47.0238 21.6061 46.9761 21.3566 46.8689 21.1902ZM19.8365 18.3413L19.8245 18.6532H13.0456C13.1052 19.7138 13.3434 20.5664 13.7604 21.1902C14.1774 21.8141 14.7254 22.126 15.3926 22.126C15.8334 22.126 16.2147 21.9596 16.5721 21.6477C16.9176 21.315 17.1916 20.8575 17.3941 20.2544H19.5386C19.1812 21.8557 18.6451 23.1034 17.9183 24.0184C17.1916 24.9333 16.3576 25.37 15.4283 25.37C14.1893 25.37 13.1409 24.6214 12.295 23.0826C11.4372 21.5645 11.0083 19.7346 11.0083 17.5927C11.0083 15.43 11.4372 13.5792 12.295 12.0404C13.1528 10.5015 14.1774 9.73212 15.3569 9.73212C16.6197 9.73212 17.6801 10.5015 18.5498 12.0404C19.4076 13.5792 19.8484 15.5132 19.8484 17.8214C19.8484 18.0502 19.8365 18.2373 19.8365 18.3413ZM23.8752 20.7119C24.3399 21.5437 24.9117 21.9804 25.6027 21.9804C26.1389 21.9804 26.5916 21.7725 26.9371 21.3774C27.2945 20.9823 27.5566 20.3792 27.7353 19.589H29.8202C29.5939 21.3774 29.0935 22.7915 28.3429 23.8312C27.5804 24.871 26.675 25.3908 25.6266 25.3908C24.3756 25.3908 23.3153 24.6214 22.4456 23.1034C21.5878 21.5853 21.147 19.7554 21.147 17.6135C21.147 15.4508 21.5759 13.6 22.4456 12.0612C23.3153 10.5223 24.3518 9.75292 25.5313 9.75292C26.6273 9.75292 27.5566 10.252 28.3191 11.271C29.0816 12.2899 29.5939 13.6624 29.8322 15.43H27.7591C27.509 14.6606 27.2111 14.0991 26.8418 13.7248C26.4725 13.3505 26.0436 13.1633 25.5432 13.1633C24.876 13.1633 24.3161 13.5792 23.8633 14.4318C23.4106 15.2636 23.1842 16.3242 23.1842 17.6135C23.1842 18.8196 23.4106 19.8801 23.8752 20.7119Z" fill="#009F8F"/>
</g>
</g>
<defs>
<clipPath id="clip0_117_8420">
<rect width="47" height="34" fill="white"/>
</clipPath>
</defs>
</svg>
