<svg width="81" height="18" viewBox="0 0 81 18" fill="none" xmlns="http://www.w3.org/2000/svg">
<g clip-path="url(#clip0_117_8510)">
<mask id="mask0_117_8510" style="mask-type:luminance" maskUnits="userSpaceOnUse" x="0" y="0" width="81" height="18">
<path d="M81 0.5H0V17.5H81V0.5Z" fill="white"/>
</mask>
<g mask="url(#mask0_117_8510)">
<path d="M7.07015 6.42548H2.53968C0.99566 6.42548 0.12207 5.64904 0.12207 4.28005V3.15625C0.12207 1.25601 1.56451 0.990387 2.96631 0.990387H7.04984V1.84856H3.55548C2.76315 1.84856 2.09272 1.93029 2.09272 3.03366V4.28005C2.09272 5.13822 2.53968 5.46515 3.73832 5.46515H7.04984L7.07015 6.42548Z" fill="#5B5EA7"/>
</g>
<mask id="mask1_117_8510" style="mask-type:luminance" maskUnits="userSpaceOnUse" x="0" y="0" width="81" height="18">
<path d="M81 0.5H0V17.5H81V0.5Z" fill="white"/>
</mask>
<g mask="url(#mask1_117_8510)">
<path d="M7.07015 6.42548H2.53968C0.99566 6.42548 0.12207 5.64904 0.12207 4.28005V3.15625C0.12207 1.25601 1.56451 0.990387 2.96631 0.990387H7.04984V1.84856H3.55548C2.76315 1.84856 2.09272 1.93029 2.09272 3.03366V4.28005C2.09272 5.13822 2.53968 5.46515 3.73832 5.46515H7.04984L7.07015 6.42548Z" stroke="#5B5EA7" stroke-width="0.029" stroke-linecap="round" stroke-linejoin="round"/>
</g>
<mask id="mask2_117_8510" style="mask-type:luminance" maskUnits="userSpaceOnUse" x="0" y="0" width="81" height="18">
<path d="M81 0.5H0V17.5H81V0.5Z" fill="white"/>
</mask>
<g mask="url(#mask2_117_8510)">
<path d="M18.5685 1.86898V5.48556H20.3563C21.3518 5.48556 21.8394 5.30167 21.8394 4.30047V3.11537C21.8394 2.29806 21.6159 1.86898 20.4173 1.86898H18.5685ZM16.6182 8.06008V1.0108H21.1283C22.8755 1.0108 23.7694 1.76681 23.7694 3.2584V4.13701C23.7694 5.79205 22.9974 6.4459 20.9861 6.4459H18.5685V8.08051H16.6182" fill="#5B5EA7"/>
</g>
<mask id="mask3_117_8510" style="mask-type:luminance" maskUnits="userSpaceOnUse" x="0" y="0" width="81" height="18">
<path d="M81 0.5H0V17.5H81V0.5Z" fill="white"/>
</mask>
<g mask="url(#mask3_117_8510)">
<path d="M16.6182 8.06008V1.0108H21.1283C22.8755 1.0108 23.7694 1.76681 23.7694 3.2584V4.137C23.7694 5.79205 22.9974 6.4459 20.9861 6.4459H18.5685V8.08051H16.6182M18.5685 1.86898V5.48556H20.3563C21.3518 5.48556 21.8394 5.30167 21.8394 4.30047V3.11537C21.8394 2.29806 21.6159 1.86898 20.4173 1.86898H18.5685Z" stroke="#5B5EA7" stroke-width="0.029" stroke-linecap="round" stroke-linejoin="round"/>
</g>
<mask id="mask4_117_8510" style="mask-type:luminance" maskUnits="userSpaceOnUse" x="0" y="0" width="81" height="18">
<path d="M81 0.5H0V17.5H81V0.5Z" fill="white"/>
</mask>
<g mask="url(#mask4_117_8510)">
<path d="M13.2462 3.87138H11.4381C10.2597 3.87138 10.1378 4.07571 10.1378 4.50479V4.85215C10.1378 5.21994 10.1378 5.46513 11.3974 5.46513H13.2462V3.87138ZM8.77666 1.0108H12.2304C13.7338 1.0108 15.1965 1.15383 15.1965 2.87018V6.42547H10.0769C8.75635 6.42547 8.1875 5.93508 8.1875 4.79085V4.4435C8.1875 3.11537 9.30488 3.01321 10.788 3.01321H13.2868V2.78845C13.2868 2.11417 12.9415 1.84854 11.4787 1.84854H8.77666V1.0108Z" fill="#5B5EA7"/>
</g>
<mask id="mask5_117_8510" style="mask-type:luminance" maskUnits="userSpaceOnUse" x="0" y="0" width="81" height="18">
<path d="M81 0.5H0V17.5H81V0.5Z" fill="white"/>
</mask>
<g mask="url(#mask5_117_8510)">
<path d="M13.2462 4.99519H11.4381C10.2597 4.99519 10.1378 5.09736 10.1378 5.36298V5.54688C10.1378 5.7512 10.1378 5.89423 11.3974 5.89423H13.2462V4.99519ZM8.77666 3.38101H12.2304C13.7338 3.38101 15.1965 3.46274 15.1965 4.42308V6.42548H10.0769C8.75635 6.42548 8.1875 6.13943 8.1875 5.50601V5.32212C8.1875 4.58654 9.30488 4.52524 10.788 4.52524H13.2868V4.38221C13.2868 3.99399 12.9415 3.85096 11.4787 3.85096H8.77666V3.38101Z" stroke="#5B5EA7" stroke-width="0.029" stroke-linecap="round" stroke-linejoin="round"/>
</g>
<mask id="mask6_117_8510" style="mask-type:luminance" maskUnits="userSpaceOnUse" x="0" y="0" width="81" height="18">
<path d="M81 0.5H0V17.5H81V0.5Z" fill="white"/>
</mask>
<g mask="url(#mask6_117_8510)">
<path d="M36.8531 0.643036C33.7041 0.643036 32.3633 2.07332 32.3633 5.42429V8.55049C32.3633 11.9015 33.7041 13.3317 36.8531 13.3317H43.2933C46.4423 13.3317 47.7831 11.9015 47.7831 8.55049V5.42429C47.7831 2.07332 46.4423 0.643036 43.2933 0.643036H36.8531ZM44.431 9.20434C44.431 10.6551 43.9434 11.1863 42.6026 11.1863H37.3407C36.0202 11.1863 35.5123 10.6551 35.5123 9.20434V4.75001C35.5123 3.29929 35.9998 2.76804 37.3407 2.76804H42.6026C43.9231 2.76804 44.431 3.29929 44.431 4.75001V9.20434Z" fill="#5B5EA7"/>
</g>
<mask id="mask7_117_8510" style="mask-type:luminance" maskUnits="userSpaceOnUse" x="0" y="0" width="81" height="18">
<path d="M81 0.5H0V17.5H81V0.5Z" fill="white"/>
</mask>
<g mask="url(#mask7_117_8510)">
<path d="M36.8531 0.643036C33.7041 0.643036 32.3633 2.07332 32.3633 5.42429V8.55049C32.3633 11.9015 33.7041 13.3317 36.8531 13.3317H43.2933C46.4423 13.3317 47.7831 11.9015 47.7831 8.55049V5.42429C47.7831 2.07332 46.4423 0.643036 43.2933 0.643036H36.8531ZM44.431 9.20433C44.431 10.6551 43.9434 11.1863 42.6026 11.1863H37.3407C36.0202 11.1863 35.5123 10.6551 35.5123 9.20433V4.75001C35.5123 3.29929 35.9998 2.76804 37.3407 2.76804H42.6026C43.9231 2.76804 44.431 3.29929 44.431 4.75001V9.20433Z" stroke="#5B5EA7" stroke-width="0.044" stroke-linecap="round" stroke-linejoin="round"/>
</g>
<mask id="mask8_117_8510" style="mask-type:luminance" maskUnits="userSpaceOnUse" x="0" y="0" width="81" height="18">
<path d="M81 0.5H0V17.5H81V0.5Z" fill="white"/>
</mask>
<g mask="url(#mask8_117_8510)">
<path d="M65.0108 0.765625V13.1887H61.2524C61.2524 13.1887 54.5684 5.26082 53.1463 3.87139V13.1887H49.8145V0.765625H53.5932C53.5932 0.765625 60.2772 8.67308 61.6993 10.0829V0.765625H64.5029H65.0108Z" fill="#5B5EA7"/>
</g>
<mask id="mask9_117_8510" style="mask-type:luminance" maskUnits="userSpaceOnUse" x="0" y="0" width="81" height="18">
<path d="M81 0.5H0V17.5H81V0.5Z" fill="white"/>
</mask>
<g mask="url(#mask9_117_8510)">
<path d="M65.0108 0.765625V13.1887H61.2524C61.2524 13.1887 54.5684 5.26082 53.1463 3.87139V13.1887H49.8145V0.765625H53.5932C53.5932 0.765625 60.2772 8.67308 61.6993 10.0829V0.765625H64.5029H65.0108Z" stroke="#5B5EA7" stroke-width="0.044" stroke-linecap="round" stroke-linejoin="round"/>
</g>
<mask id="mask10_117_8510" style="mask-type:luminance" maskUnits="userSpaceOnUse" x="0" y="0" width="81" height="18">
<path d="M81 0.5H0V17.5H81V0.5Z" fill="white"/>
</mask>
<g mask="url(#mask10_117_8510)">
<path d="M69.0339 13.1887C68.526 13.1887 68.0384 12.9844 67.6931 12.6166C67.3477 12.2488 67.1445 11.7584 67.1445 11.2476V0.765625H79.9843H80.4922V2.7476H70.456V5.8125H80.3906V7.8149H70.456V10.226C70.456 10.4712 70.5576 10.7368 70.7405 10.9207C70.9233 11.1046 71.1671 11.2067 71.4109 11.2067H80.8782V13.2296H69.0339V13.1887Z" fill="#5B5EA7"/>
</g>
<mask id="mask11_117_8510" style="mask-type:luminance" maskUnits="userSpaceOnUse" x="0" y="0" width="81" height="18">
<path d="M81 0.5H0V17.5H81V0.5Z" fill="white"/>
</mask>
<g mask="url(#mask11_117_8510)">
<path d="M69.0339 13.1887C68.526 13.1887 68.0384 12.9844 67.6931 12.6166C67.3477 12.2488 67.1445 11.7584 67.1445 11.2476V0.765625H79.9843H80.4922V2.7476H70.456V5.8125H80.3906V7.8149H70.456V10.226C70.456 10.4712 70.5576 10.7368 70.7405 10.9207C70.9233 11.1046 71.1671 11.2067 71.4109 11.2067H80.8782V13.2296H69.0339V13.1887Z" stroke="#5B5EA7" stroke-width="0.044" stroke-linecap="round" stroke-linejoin="round"/>
</g>
<mask id="mask12_117_8510" style="mask-type:luminance" maskUnits="userSpaceOnUse" x="0" y="0" width="81" height="18">
<path d="M81 0.5H0V17.5H81V0.5Z" fill="white"/>
</mask>
<g mask="url(#mask12_117_8510)">
<path d="M42.7859 16.4375C42.7859 16.0697 42.664 15.8041 42.4406 15.6202C42.278 15.4567 42.0139 15.375 41.6889 15.375C41.3638 15.375 41.12 15.4567 40.9372 15.6202C40.7137 15.8041 40.5918 16.0697 40.5918 16.4375C40.5918 16.8053 40.7137 17.0709 40.9372 17.2548C41.0997 17.4183 41.3638 17.4796 41.6889 17.4796C42.0139 17.4796 42.2577 17.3978 42.4406 17.2548C42.664 17.0709 42.7859 16.7849 42.7859 16.4375ZM41.6889 17.1322C41.506 17.1322 41.3435 17.0709 41.2419 16.9483C41.12 16.8257 41.0794 16.6418 41.0794 16.4171C41.0794 16.1923 41.1403 16.0288 41.2419 15.9062C41.3435 15.7837 41.506 15.7224 41.6889 15.7224C41.8717 15.7224 42.0342 15.7837 42.1358 15.9062C42.2577 16.0288 42.2983 16.1923 42.2983 16.4171C42.2983 16.6418 42.2374 16.8257 42.1358 16.9483C42.0342 17.0709 41.892 17.1322 41.6889 17.1322Z" fill="#5B5EA7"/>
</g>
<mask id="mask13_117_8510" style="mask-type:luminance" maskUnits="userSpaceOnUse" x="0" y="0" width="81" height="18">
<path d="M81 0.5H0V17.5H81V0.5Z" fill="white"/>
</mask>
<g mask="url(#mask13_117_8510)">
<path d="M44.6139 15.4772L44.8171 15.6202L44.939 15.7837L44.9796 15.988L44.8984 16.2945L44.6342 16.4988L44.8577 16.6623L44.9187 16.9688V17.1118L44.939 17.2957L45.0203 17.3978V17.4387H44.492L44.4514 17.3365L44.4311 17.1731V16.9892L44.3498 16.7236L44.0654 16.6623H43.5981V17.4387H43.1309V15.4363H44.2279L44.6139 15.4772ZM43.6184 15.7837V16.3149H44.1263L44.3498 16.274L44.492 16.0493L44.3701 15.8245L44.1467 15.7837H43.6184Z" fill="#5B5EA7"/>
</g>
<mask id="mask14_117_8510" style="mask-type:luminance" maskUnits="userSpaceOnUse" x="0" y="0" width="81" height="18">
<path d="M81 0.5H0V17.5H81V0.5Z" fill="white"/>
</mask>
<g mask="url(#mask14_117_8510)">
<path d="M45.2842 17.4387H45.7921L45.9546 17.03H46.8079L46.9501 17.4387H47.4783L46.6657 15.4363H46.1171L45.2842 17.4387ZM46.3609 15.8858L46.6453 16.6622H46.0562L46.3609 15.8858Z" fill="#5B5EA7"/>
</g>
<mask id="mask15_117_8510" style="mask-type:luminance" maskUnits="userSpaceOnUse" x="0" y="0" width="81" height="18">
<path d="M81 0.5H0V17.5H81V0.5Z" fill="white"/>
</mask>
<g mask="url(#mask15_117_8510)">
<path d="M47.7422 17.4387H49.3472V17.0709H48.2095V15.4363H47.7422V17.4387Z" fill="#5B5EA7"/>
</g>
<mask id="mask16_117_8510" style="mask-type:luminance" maskUnits="userSpaceOnUse" x="0" y="0" width="81" height="18">
<path d="M81 0.5H0V17.5H81V0.5Z" fill="white"/>
</mask>
<g mask="url(#mask16_117_8510)">
<path d="M50.5059 15.4363H50.9934L51.9077 16.8257V15.4363H52.3546V17.4387H51.867L50.9325 16.0084V17.4387H50.5059V15.4363Z" fill="#5B5EA7"/>
</g>
<mask id="mask17_117_8510" style="mask-type:luminance" maskUnits="userSpaceOnUse" x="0" y="0" width="81" height="18">
<path d="M81 0.5H0V17.5H81V0.5Z" fill="white"/>
</mask>
<g mask="url(#mask17_117_8510)">
<path d="M53.4515 15.4363H54L54.8127 17.4387H54.3048L54.1626 17.0301H53.3296L53.1671 17.4387H52.6592L53.4515 15.4363ZM53.4312 16.6827H54.0204L53.7359 15.8858L53.4312 16.6827Z" fill="#5B5EA7"/>
</g>
<mask id="mask18_117_8510" style="mask-type:luminance" maskUnits="userSpaceOnUse" x="0" y="0" width="81" height="18">
<path d="M81 0.5H0V17.5H81V0.5Z" fill="white"/>
</mask>
<g mask="url(#mask18_117_8510)">
<path d="M55.4427 16.8053L55.5239 17.0096C55.6052 17.0913 55.7271 17.1322 55.9303 17.1322L56.2147 17.0913L56.4178 16.8666L56.3163 16.7031L56.0115 16.6009L55.7677 16.5601C55.5239 16.5192 55.3614 16.4579 55.2801 16.4171C55.1176 16.3353 55.0363 16.1719 55.0363 15.988L55.2598 15.5384C55.402 15.4159 55.6255 15.3546 55.9099 15.3546C56.1537 15.3546 56.3569 15.4159 56.5397 15.518C56.7023 15.6202 56.8038 15.7836 56.8038 16.0084H56.3366L56.1537 15.7428L55.8693 15.7223L55.5646 15.7836L55.463 15.9675L55.5646 16.131L55.8693 16.2127L56.2756 16.2945L56.6616 16.4375L56.8648 16.8461L56.621 17.2957C56.4585 17.4183 56.235 17.4796 55.9303 17.4796C55.6255 17.4796 55.402 17.4183 55.2192 17.2957C55.0567 17.1731 54.9551 17.0096 54.9551 16.8053H55.4427Z" fill="#5B5EA7"/>
</g>
<mask id="mask19_117_8510" style="mask-type:luminance" maskUnits="userSpaceOnUse" x="0" y="0" width="81" height="18">
<path d="M81 0.5H0V17.5H81V0.5Z" fill="white"/>
</mask>
<g mask="url(#mask19_117_8510)">
<path d="M57.8806 15.4363H58.4292L59.2418 17.4387H58.7339L58.5917 17.03H57.6978L57.5352 17.4387H57.0273L57.8806 15.4363ZM57.84 16.6827H58.4292L58.1447 15.8858L57.84 16.6827Z" fill="#5B5EA7"/>
</g>
<mask id="mask20_117_8510" style="mask-type:luminance" maskUnits="userSpaceOnUse" x="0" y="0" width="81" height="18">
<path d="M81 0.5H0V17.5H81V0.5Z" fill="white"/>
</mask>
<g mask="url(#mask20_117_8510)">
<path d="M59.5059 15.4363H59.9731V17.0709H61.1108V17.4387H59.5059V15.4363Z" fill="#5B5EA7"/>
</g>
<mask id="mask21_117_8510" style="mask-type:luminance" maskUnits="userSpaceOnUse" x="0" y="0" width="81" height="18">
<path d="M81 0.5H0V17.5H81V0.5Z" fill="white"/>
</mask>
<g mask="url(#mask21_117_8510)">
<path d="M63.9347 15.7837H62.7563V16.2128H63.8331V16.5601H62.7563V17.0709H63.9956V17.4387H62.2891V15.4363H63.9347V15.7837Z" fill="#5B5EA7"/>
</g>
<mask id="mask22_117_8510" style="mask-type:luminance" maskUnits="userSpaceOnUse" x="0" y="0" width="81" height="18">
<path d="M81 0.5H0V17.5H81V0.5Z" fill="white"/>
</mask>
<g mask="url(#mask22_117_8510)">
<path d="M64.7671 17.4387H64.1982L64.9296 16.417L64.2389 15.4363H64.8077L65.214 16.0901L65.6204 15.4363H66.1892L65.4782 16.3966L66.2298 17.4387H65.661L65.214 16.7644L64.7671 17.4387Z" fill="#5B5EA7"/>
</g>
<mask id="mask23_117_8510" style="mask-type:luminance" maskUnits="userSpaceOnUse" x="0" y="0" width="81" height="18">
<path d="M81 0.5H0V17.5H81V0.5Z" fill="white"/>
</mask>
<g mask="url(#mask23_117_8510)">
<path d="M68.2415 16.0697C68.2415 15.8449 68.1806 15.7019 68.0384 15.5793C67.8961 15.4772 67.7336 15.4159 67.4898 15.4159H66.5146V17.4183H66.9819V16.7236H67.4492C67.693 16.7236 67.8961 16.6827 68.018 16.5805C68.1806 16.4784 68.2415 16.2945 68.2415 16.0697ZM67.7742 16.0697L67.693 16.2945L67.4492 16.3762H67.0225V15.7837H67.4492L67.693 15.8449L67.7742 16.0697Z" fill="#5B5EA7"/>
</g>
<mask id="mask24_117_8510" style="mask-type:luminance" maskUnits="userSpaceOnUse" x="0" y="0" width="81" height="18">
<path d="M81 0.5H0V17.5H81V0.5Z" fill="white"/>
</mask>
<g mask="url(#mask24_117_8510)">
<path d="M69.0542 15.4363H68.5869V17.4387H69.0542V15.4363Z" fill="#5B5EA7"/>
</g>
<mask id="mask25_117_8510" style="mask-type:luminance" maskUnits="userSpaceOnUse" x="0" y="0" width="81" height="18">
<path d="M81 0.5H0V17.5H81V0.5Z" fill="white"/>
</mask>
<g mask="url(#mask25_117_8510)">
<path d="M70.6185 15.4363H69.5215V17.4387H69.9888V16.6623H70.456L70.7201 16.7236L70.8014 16.9892V17.1731L70.8217 17.3365L70.8623 17.4387H71.3906V17.3774L71.3093 17.2753L71.289 17.0914V16.9483L71.228 16.6418L71.0046 16.4784L71.2687 16.274L71.3499 15.988L71.3093 15.7837L71.2077 15.6202L70.9842 15.4772L70.6185 15.4363ZM70.5373 15.7837L70.7608 15.8245L70.8827 16.0697L70.7404 16.2945L70.517 16.3353H70.0091V15.7837H70.5373Z" fill="#5B5EA7"/>
</g>
<mask id="mask26_117_8510" style="mask-type:luminance" maskUnits="userSpaceOnUse" x="0" y="0" width="81" height="18">
<path d="M81 0.5H0V17.5H81V0.5Z" fill="white"/>
</mask>
<g mask="url(#mask26_117_8510)">
<path d="M72.4671 15.4363H73.0157L73.8283 17.4387H73.3204L73.1782 17.0301H72.3452L72.1827 17.4387H71.6748L72.4671 15.4363ZM72.4468 16.6827H73.036L72.7312 15.8858L72.4468 16.6827Z" fill="#5B5EA7"/>
</g>
<mask id="mask27_117_8510" style="mask-type:luminance" maskUnits="userSpaceOnUse" x="0" y="0" width="81" height="18">
<path d="M81 0.5H0V17.5H81V0.5Z" fill="white"/>
</mask>
<g mask="url(#mask27_117_8510)">
<path d="M73.6865 15.4363V15.7836H74.3773V17.4387H74.8445V15.7836H75.5353V15.4363H73.6865Z" fill="#5B5EA7"/>
</g>
<mask id="mask28_117_8510" style="mask-type:luminance" maskUnits="userSpaceOnUse" x="0" y="0" width="81" height="18">
<path d="M81 0.5H0V17.5H81V0.5Z" fill="white"/>
</mask>
<g mask="url(#mask28_117_8510)">
<path d="M76.2456 15.4363H75.7783V17.4387H76.2456V15.4363Z" fill="#5B5EA7"/>
</g>
<mask id="mask29_117_8510" style="mask-type:luminance" maskUnits="userSpaceOnUse" x="0" y="0" width="81" height="18">
<path d="M81 0.5H0V17.5H81V0.5Z" fill="white"/>
</mask>
<g mask="url(#mask29_117_8510)">
<path d="M78.8055 16.4375C78.8055 16.0697 78.6836 15.8041 78.4601 15.6202C78.2976 15.4567 78.0335 15.375 77.7084 15.375C77.3833 15.375 77.1395 15.4567 76.9567 15.6202C76.7332 15.8041 76.6113 16.0697 76.6113 16.4375C76.6113 16.8053 76.7332 17.0709 76.9567 17.2548C77.1192 17.4183 77.3833 17.4796 77.7084 17.4796C78.0335 17.4796 78.2772 17.3978 78.4601 17.2548C78.6836 17.0709 78.8055 16.7849 78.8055 16.4375ZM77.7084 17.1322C77.5256 17.1322 77.363 17.0709 77.2614 16.9483C77.1395 16.8257 77.0989 16.6418 77.0989 16.4171C77.0989 16.1923 77.1599 16.0288 77.2614 15.9062C77.3833 15.7837 77.5256 15.7224 77.7084 15.7224C77.8912 15.7224 78.0538 15.7837 78.1554 15.9062C78.2569 16.0288 78.3179 16.1923 78.3179 16.4171C78.3179 16.6418 78.2569 16.8257 78.1554 16.9483C78.0538 17.0709 77.8912 17.1322 77.7084 17.1322Z" fill="#5B5EA7"/>
</g>
<mask id="mask30_117_8510" style="mask-type:luminance" maskUnits="userSpaceOnUse" x="0" y="0" width="81" height="18">
<path d="M81 0.5H0V17.5H81V0.5Z" fill="white"/>
</mask>
<g mask="url(#mask30_117_8510)">
<path d="M79.1719 15.4363H79.6595L80.5737 16.8257V15.4363H81.0003V17.4387H80.533L79.5985 16.0084V17.4387H79.1719V15.4363Z" fill="#5B5EA7"/>
</g>
</g>
<defs>
<clipPath id="clip0_117_8510">
<rect width="81" height="17" fill="white" transform="translate(0 0.5)"/>
</clipPath>
</defs>
</svg>
