<svg width="225" height="68" viewBox="0 0 225 68" fill="none" xmlns="http://www.w3.org/2000/svg">
<path d="M45.5243 0.373358C45.5243 0.297376 45.5243 0.24039 45.5054 0.221395C45.0499 -0.690382 40.5899 1.49408 40.0774 1.72203C39.4701 1.96897 38.8628 2.2349 38.2555 2.51983C37.5533 2.84275 36.87 3.18467 36.1678 3.50759C35.3897 3.90649 34.6116 4.3054 33.8335 4.7043C32.9794 5.16019 32.1254 5.63507 31.2713 6.10995C30.3414 6.64182 29.4304 7.17369 28.5194 7.72456C27.5515 8.31341 26.5836 8.94026 25.6536 9.56711C24.6478 10.2509 23.6609 10.9348 22.7119 11.6566C21.7061 12.4164 20.7192 13.2142 19.7702 14.031C18.7644 14.8858 17.7965 15.7786 16.8665 16.7094C15.8986 17.6781 14.9686 18.6849 14.0766 19.7296C13.1467 20.8314 12.2547 21.9521 11.4196 23.1298C10.5466 24.3455 9.71153 25.6182 8.93341 26.8909C8.11732 28.2395 7.35818 29.6262 6.61801 31.0129C5.85886 32.4755 5.13767 33.9761 4.45443 35.4578C3.75222 37.0154 3.06899 38.592 2.40474 40.1686C1.7215 41.7832 1.07623 43.3978 0.430952 45.0314C0.411973 45.0884 0.336059 45.2784 0.222187 45.5253C0.0323997 45.9622 -0.0814724 46.4561 0.0703572 46.931C0.203208 47.3869 0.544824 47.7478 0.981334 48.0137C1.20908 48.1467 1.87333 48.4506 1.96823 48.4696C2.23393 48.6026 2.49963 48.7165 2.76533 48.8305C3.06899 48.9635 3.37265 49.0964 3.69529 49.2484C4.0369 49.4004 4.3975 49.5523 4.73912 49.7043C5.11869 49.8753 5.49826 50.0462 5.89682 50.2172C6.31435 50.4071 6.73188 50.5971 7.13043 50.787C7.56694 50.977 8.00345 51.1669 8.43996 51.3759C8.89545 51.5848 9.35094 51.7938 9.82541 52.0027C10.2999 52.2117 10.7743 52.4206 11.2488 52.6486C11.7423 52.8575 12.2357 53.0855 12.7102 53.3134C13.2036 53.5414 13.716 53.7693 14.2095 53.9783C14.7219 54.2062 15.2343 54.4341 15.7468 54.6621C16.2782 54.89 16.7906 55.137 17.303 55.3649C17.8344 55.5929 18.3468 55.8208 18.8782 56.0677C19.4096 56.2957 19.9411 56.5426 20.4725 56.7896C20.7951 56.9415 21.1367 57.0745 21.4593 57.2265C20.3206 44.8795 21.3265 19.0458 45.5243 0.373358Z" fill="#135747"/>
<path d="M40.4001 32.6275C40.419 32.2666 40.476 31.9057 40.4001 31.5258C40.3241 31.1839 40.0774 30.9369 39.7548 30.747C39.584 30.652 39.3942 30.576 39.2044 30.481C39.0905 30.4241 38.9766 30.3671 38.8438 30.3291L26.3938 24.6685C25.1222 27.5937 24.1353 30.519 23.3951 33.3683L37.2116 39.6558C37.2116 39.6558 39.0526 40.5486 39.6978 40.4156C40.3811 40.2826 40.3811 39.8647 40.3811 39.2379C40.3241 37.7563 40.3241 36.2746 40.3431 34.774C40.3431 34.0522 40.3621 33.3303 40.4001 32.6275Z" fill="#135747"/>
<path d="M21.4592 57.2454C21.668 57.3404 21.8768 57.4354 22.0855 57.5114C22.6169 57.7583 23.1673 57.9863 23.6987 58.2332C24.2301 58.4801 24.7805 58.7081 25.3119 58.955C25.8433 59.202 26.3747 59.4299 26.9251 59.6768C27.4565 59.9238 27.9879 60.1517 28.5193 60.3987C29.0507 60.6266 29.5631 60.8736 30.0945 61.1015C30.607 61.3294 31.1194 61.5574 31.6508 61.7853C32.1632 62.0133 32.6567 62.2412 33.1691 62.4692C33.6625 62.6781 34.137 62.9061 34.6304 63.134C35.1049 63.3429 35.5794 63.5519 36.0538 63.7608C36.4904 63.9698 36.9458 64.1597 37.4013 64.3687C37.8189 64.5586 38.2364 64.7486 38.6729 64.9386C39.0715 65.1095 39.451 65.2805 39.8496 65.4704C40.2102 65.6414 40.5708 65.7933 40.9314 65.9643C41.254 66.1163 41.5766 66.2492 41.8993 66.4012C42.184 66.5342 42.4876 66.6671 42.7723 66.7811C43.019 66.8951 43.2847 67.009 43.5504 67.123C43.7782 67.218 44.4614 67.5599 44.9169 67.256C45.3914 66.9521 45.2395 66.4772 45.1446 66.1923C45.0118 65.8123 44.8979 65.4514 44.784 65.0715C44.6322 64.5776 44.4994 64.1028 44.3475 63.6089C44.1767 63.001 44.0059 62.3932 43.8541 61.7853C43.6643 61.0445 43.4745 60.3037 43.2847 59.5819C43.076 58.7271 42.8292 57.8343 42.3168 56.8465C41.9183 56.1247 39.508 55.1559 39.508 55.1559L21.2694 46.855C21.0607 50.882 21.2125 54.4151 21.4592 57.2454Z" fill="#135747"/>
<path d="M42.5827 14.202C42.9243 12.3025 43.2849 10.403 43.6645 8.50342C43.9681 6.9648 45.5054 1.45615 45.5244 0.373413C40.2863 4.41942 36.1489 8.78835 32.8656 13.2903L41.0644 17.0133C41.0644 17.0133 41.6717 17.0893 41.9184 16.8614C42.4878 16.3295 42.3929 15.2848 42.5827 14.202Z" fill="#135747"/>
<path d="M145.144 49.3814H139.716C139.279 49.3814 138.9 49.1155 138.729 48.7166L138.311 47.7478C138.254 47.6148 138.084 47.5769 137.97 47.6718C137.609 47.9948 137.495 48.1087 136.831 48.4507C135.313 49.2485 134.06 49.3624 132.124 49.3624C128.082 49.3624 123.584 49.7803 119.75 47.045C115.841 44.2527 115.878 39.6748 115.859 34.641C115.841 28.9614 115.366 24.3835 118.668 21.2493C122.388 17.6972 126.032 17.9441 131.042 17.9441C135.483 17.9441 139.564 18.1721 142.088 20.2046C144.346 22.0471 145.903 24.9534 146.187 28.4865C146.244 29.1324 145.732 29.6832 145.106 29.6832H139.298C138.767 29.6832 138.311 29.2843 138.235 28.7335C138.159 28.1826 137.951 27.5937 137.097 26.7959C135.749 25.5422 134.572 25.6942 132.086 25.6942C128.993 25.6942 125.918 25.4853 124.381 27.4608C122.844 29.4363 123.185 31.2029 123.223 34.2611C123.28 38.687 123.033 39.7698 124.969 41.4414C126.886 43.1129 129.486 42.771 132.01 42.771C134.516 42.771 135.806 41.9162 137.173 40.6625C137.438 40.4156 137.628 40.2446 137.761 40.1117C137.894 39.9787 137.799 39.7318 137.609 39.7318H132.618C132.01 39.7318 131.536 39.2379 131.536 38.6111V33.4823C131.536 32.8555 132.029 32.3616 132.618 32.3616H145.201C145.808 32.3616 146.282 32.8555 146.282 33.4823V48.2227C146.225 48.8875 145.751 49.3814 145.144 49.3814Z" fill="#135747"/>
<path d="M157.404 49.4193H150.458C149.85 49.4193 149.376 48.9254 149.376 48.2986V19.0837C149.376 18.4569 149.869 17.963 150.458 17.963H157.404C158.011 17.963 158.486 18.4569 158.486 19.0837V48.2796C158.486 48.9064 158.011 49.4193 157.404 49.4193Z" fill="#135747"/>
<path d="M193.103 49.4194H184.961C184.638 49.4194 184.316 49.2674 184.107 49.0015L171.049 31.9057H170.746V48.3177C170.746 48.9445 170.252 49.4384 169.664 49.4384H162.718C162.11 49.4384 161.636 48.9445 161.636 48.3177V19.0838C161.636 18.457 162.129 17.9631 162.718 17.9631H170.86C171.182 17.9631 171.505 18.115 171.714 18.381L184.771 35.4768H185.094V19.0648C185.094 18.438 185.587 17.9441 186.175 17.9441H193.122C193.729 17.9441 194.203 18.438 194.203 19.0648V48.2607C194.184 48.9065 193.691 49.4194 193.103 49.4194Z" fill="#135747"/>
<path d="M223.374 49.4193H198.417C197.809 49.4193 197.335 48.9254 197.335 48.2986V19.0837C197.335 18.4569 197.828 17.963 198.417 17.963H222.045C222.652 17.963 223.127 18.4569 223.127 19.0837V24.9343C223.127 25.2382 222.88 25.5042 222.577 25.5042H206.71C206.407 25.5042 206.16 25.7511 206.16 26.074V29.4552C206.16 29.7591 206.407 30.0251 206.71 30.0251H220.982C221.286 30.0251 221.533 30.272 221.533 30.5949V36.5975C221.533 36.9014 221.286 37.1673 220.982 37.1673H206.71C206.407 37.1673 206.16 37.4142 206.16 37.7372V41.3653C206.16 41.6692 206.407 41.9352 206.71 41.9352H223.905C224.209 41.9352 224.455 42.1821 224.455 42.505V48.3556C224.455 48.9064 223.962 49.4193 223.374 49.4193Z" fill="#135747"/>
<path d="M111.627 49.4194H103.485C103.163 49.4194 102.84 49.2674 102.631 49.0015L89.5738 31.9057H89.2702V48.3177C89.2702 48.9445 88.7767 49.4384 88.1884 49.4384H81.2422C80.6349 49.4384 80.1604 48.9445 80.1604 48.3177V19.0838C80.1604 18.457 80.6538 17.9631 81.2422 17.9631H89.384C89.7067 17.9631 90.0293 18.115 90.2381 18.381L103.295 35.4768H103.618V19.0648C103.618 18.438 104.112 17.9441 104.7 17.9441H111.646C112.253 17.9441 112.728 18.438 112.728 19.0648V48.2607C112.709 48.9065 112.215 49.4194 111.627 49.4194Z" fill="#135747"/>
<path d="M57.6137 65.4704H56.437C56.3611 65.4704 56.3042 65.4134 56.3042 65.3564V61.6143C56.3042 61.4813 56.1144 61.4623 56.0575 61.5763L54.4633 65.4134C54.4443 65.4514 54.3873 65.4893 54.3494 65.4893H53.2676C53.2107 65.4893 53.1727 65.4514 53.1537 65.4134L51.5595 61.5763C51.5026 61.4623 51.3128 61.4813 51.3128 61.6143V65.3564C51.3128 65.4134 51.2559 65.4704 51.1799 65.4704H49.9843C49.9084 65.4704 49.8514 65.4134 49.8514 65.3564V58.822C49.8514 58.765 49.9084 58.708 49.9843 58.708H51.7114C51.7683 58.708 51.8062 58.746 51.8252 58.784L53.6662 63.3239C53.7041 63.4189 53.8749 63.4189 53.9129 63.3239L55.7538 58.784C55.7728 58.746 55.8107 58.708 55.8677 58.708H57.5947C57.6707 58.708 57.7276 58.765 57.7276 58.822V65.3564C57.7466 65.4134 57.6896 65.4704 57.6137 65.4704Z" fill="#135747"/>
<path d="M61.8841 65.5843C60.9921 65.5843 60.2519 65.3564 59.7015 64.9005C59.1511 64.4256 58.8665 63.7798 58.8665 62.982C58.8665 62.1652 59.1322 61.5193 59.6825 61.0634C60.2139 60.6075 60.9162 60.3606 61.7702 60.3606C62.6432 60.3606 63.3454 60.5885 63.8768 61.0444C64.4082 61.5003 64.6739 62.1462 64.6739 62.982V63.3809H60.5366C60.4607 63.3809 60.4037 63.4378 60.4037 63.5138C60.4417 63.8178 60.6315 64.0647 60.8402 64.2167C61.1249 64.4446 61.4665 64.5586 61.8841 64.5586C62.1877 64.5586 62.4724 64.5016 62.7381 64.3686C62.9469 64.2546 63.0797 64.1027 63.1556 63.9127L63.1936 63.7228H64.617L64.579 63.9507C64.4841 64.4826 64.1805 64.9005 63.6681 65.1854C63.1746 65.4324 62.5863 65.5843 61.8841 65.5843ZM63.0987 62.3171C63.0418 61.9562 62.871 61.8232 62.6812 61.6713C62.4344 61.4813 62.1308 61.3863 61.7702 61.3863C61.4096 61.3863 61.1249 61.4813 60.8782 61.6713C60.6694 61.8232 60.4986 61.9752 60.4417 62.3171" fill="#135747"/>
<path d="M67.8812 65.5843C67.0651 65.5843 66.4199 65.3374 65.9834 64.8625C65.5468 64.4066 65.3191 63.7798 65.3191 63.001C65.3191 62.2032 65.5658 61.5573 66.0593 61.0824C66.5527 60.6075 67.198 60.3606 67.9571 60.3606C68.3936 60.3606 68.7732 60.4366 69.1148 60.5696C69.2097 60.6075 69.3046 60.5506 69.3046 60.4746V58.822C69.3046 58.765 69.3616 58.708 69.4375 58.708H70.6331C70.709 58.708 70.766 58.765 70.766 58.822V65.3564C70.766 65.4134 70.709 65.4704 70.6331 65.4704H69.3046V65.1664C68.8681 65.4514 68.3936 65.5843 67.8812 65.5843ZM68.0141 61.3864C67.6345 61.3864 67.3688 61.5003 67.16 61.7663C66.9323 62.0322 66.8184 62.4501 66.8184 63.001C66.8184 63.5138 66.9323 63.9127 67.141 64.1787C67.3498 64.4256 67.6155 64.5396 67.9761 64.5396C68.4506 64.5396 68.8491 64.3116 69.0389 64.0077C69.2856 63.6088 69.3995 62.868 69.1718 62.0892C69.0389 61.6523 68.5645 61.3864 68.0141 61.3864Z" fill="#135747"/>
<path d="M73.442 65.4704H72.2273C72.1514 65.4704 72.0945 65.4134 72.0945 65.3565V60.5696C72.0945 60.5126 72.1514 60.4557 72.2273 60.4557H73.442C73.5179 60.4557 73.5748 60.5126 73.5748 60.5696V65.3565C73.5748 65.4134 73.5179 65.4704 73.442 65.4704ZM73.442 59.9808H72.2273C72.1514 59.9808 72.0945 59.9238 72.0945 59.8668V58.8031C72.0945 58.7461 72.1514 58.6891 72.2273 58.6891H73.442C73.5179 58.6891 73.5748 58.7461 73.5748 58.8031V59.8668C73.5748 59.9238 73.5179 59.9808 73.442 59.9808Z" fill="#135747"/>
<path d="M77.4465 65.5844C76.5734 65.5844 75.8712 65.3564 75.3398 64.9005C74.8084 64.4446 74.5427 63.7988 74.5427 62.982C74.5427 62.1652 74.8084 61.5194 75.3398 61.0635C75.8712 60.6076 76.5734 60.3796 77.4465 60.3796C78.1107 60.3796 78.6991 60.5886 79.1545 60.8925C79.7619 61.2914 79.7998 61.6903 79.8757 62.0322C79.9137 62.2412 79.9137 62.5451 79.9137 62.5451H78.6611C78.5852 62.5451 78.5282 62.4881 78.5282 62.4311C78.5282 62.3172 78.5283 62.1462 78.4523 62.0132C78.4144 61.9373 78.3954 61.8233 78.1677 61.6523C77.9968 61.5384 77.7881 61.4434 77.4654 61.4434C77.01 61.4434 76.8012 61.5194 76.4786 61.8423C76.2129 62.1082 76.042 62.4501 76.042 62.982C76.042 63.5139 76.1749 63.9128 76.4406 64.1597C76.7063 64.4256 77.0289 64.5396 77.4654 64.5396C77.7501 64.5396 77.9968 64.4826 78.2056 64.3497C78.3954 64.2357 78.5282 64.0457 78.5282 63.8368L78.5472 63.4189H79.9706L79.9137 63.9128C79.8378 64.4446 79.61 64.8815 79.1356 65.1665C78.6801 65.4514 78.1297 65.5844 77.4465 65.5844Z" fill="#135747"/>
<path d="M82.5707 65.5843C81.9634 65.5843 81.432 65.4514 81.0335 65.1664C80.6159 64.8815 80.3882 64.5016 80.3882 64.0457C80.3882 62.83 81.6218 62.2221 84.07 62.2221H84.3357C84.3737 61.9752 84.3737 61.9182 84.2788 61.7473C84.2409 61.6713 84.2029 61.6143 84.0321 61.5573C83.8613 61.5003 83.6335 61.4053 83.235 61.4243C82.2861 61.4433 82.0773 61.8422 82.0203 61.9942L82.0014 62.1842H80.54L80.559 61.9752C80.6349 60.9115 81.5459 60.3606 83.254 60.3606C84.0321 60.3606 84.6584 60.4936 85.0949 60.7405C85.5694 61.0064 85.8161 61.5383 85.8161 62.2981V65.3564C85.8161 65.4134 85.7591 65.4704 85.6832 65.4704H84.3547V65.1854C83.8613 65.4514 83.254 65.5843 82.5707 65.5843ZM83.5766 63.2289C82.9503 63.2099 81.8875 63.4948 81.8875 64.0077C81.8875 64.1787 81.9634 64.2926 82.0963 64.3686C82.4379 64.5776 83.0832 64.5396 83.4817 64.4446C83.7284 64.3876 84.0131 64.2546 84.2219 64.0457C84.3927 63.8747 84.3737 63.5518 84.2219 63.4188C84.146 63.3429 83.9941 63.2289 83.5766 63.2289Z" fill="#135747"/>
<path d="M88.5111 65.4704H87.2964C87.2205 65.4704 87.1636 65.4134 87.1636 65.3564V58.822C87.1636 58.765 87.2205 58.708 87.2964 58.708H88.5111C88.587 58.708 88.6439 58.765 88.6439 58.822V65.3564C88.6249 65.4134 88.568 65.4704 88.5111 65.4704Z" fill="#135747"/>
<path d="M99.5567 65.4704H93.4836C93.4076 65.4704 93.3507 65.4134 93.3507 65.3564V58.822C93.3507 58.765 93.4076 58.708 93.4836 58.708H99.3859C99.4618 58.708 99.5188 58.765 99.5188 58.822V59.7528C99.5188 59.8097 99.4618 59.8667 99.3859 59.8667H94.9829C94.907 59.8667 94.85 59.9237 94.85 59.9807V61.2914C94.85 61.3484 94.907 61.4054 94.9829 61.4054H99.0823C99.1582 61.4054 99.2151 61.4623 99.2151 61.5193V62.4501C99.2151 62.5071 99.1582 62.5641 99.0823 62.5641H94.9829C94.907 62.5641 94.85 62.6211 94.85 62.678V64.1977C94.85 64.2547 94.907 64.3116 94.9829 64.3116H99.5757C99.6516 64.3116 99.7086 64.3686 99.7086 64.4256V65.3564C99.6706 65.4134 99.6327 65.4704 99.5567 65.4704Z" fill="#135747"/>
<path d="M105.82 67.237H104.624C104.548 67.237 104.491 67.18 104.491 67.123V65.3754C104.491 65.2805 104.377 65.2425 104.301 65.2805C103.941 65.4704 103.542 65.5654 103.087 65.5654C102.271 65.5654 101.625 65.3185 101.17 64.8436C100.733 64.3877 100.506 63.7608 100.506 62.982C100.506 62.1842 100.752 61.5194 101.246 61.0635C101.758 60.5886 102.385 60.3417 103.144 60.3417C103.637 60.3417 104.093 60.4367 104.491 60.6266V60.4367H105.82C105.896 60.4367 105.953 60.4936 105.953 60.5506V67.104C105.934 67.199 105.877 67.237 105.82 67.237ZM103.201 61.3864C102.84 61.3864 102.555 61.5004 102.328 61.7663C102.1 62.0323 101.986 62.4502 101.986 63.001C101.986 63.5139 102.1 63.9128 102.309 64.1787C102.517 64.4257 102.783 64.5017 103.144 64.5017C103.618 64.5017 104.036 64.3687 104.32 63.8558C104.529 63.4949 104.548 62.4312 104.32 61.9563C104.112 61.5384 103.675 61.3864 103.201 61.3864Z" fill="#135747"/>
<path d="M109.426 65.5843C108.021 65.5843 107.262 64.9195 107.262 63.6848V60.5695C107.262 60.5125 107.319 60.4556 107.395 60.4556H108.61C108.685 60.4556 108.742 60.5125 108.742 60.5695V63.6468C108.742 63.9697 108.894 64.1597 109.008 64.2926C109.122 64.4066 109.255 64.5016 109.577 64.5206C110.147 64.5586 110.906 64.3876 110.906 63.6278V60.5885C110.906 60.5315 110.963 60.4746 111.039 60.4746H112.235C112.31 60.4746 112.367 60.5315 112.367 60.5885V65.3754C112.367 65.4323 112.31 65.4893 112.235 65.4893H110.906V65.1474C110.469 65.4323 109.976 65.5843 109.426 65.5843Z" fill="#135747"/>
<path d="M115.062 65.4704H113.848C113.772 65.4704 113.715 65.4134 113.715 65.3565V60.5696C113.715 60.5126 113.772 60.4557 113.848 60.4557H115.062C115.138 60.4557 115.195 60.5126 115.195 60.5696V65.3565C115.195 65.4134 115.138 65.4704 115.062 65.4704ZM115.062 59.9808H113.848C113.772 59.9808 113.715 59.9238 113.715 59.8668V58.8031C113.715 58.7461 113.772 58.6891 113.848 58.6891H115.062C115.138 58.6891 115.195 58.7461 115.195 58.8031V59.8668C115.195 59.9238 115.138 59.9808 115.062 59.9808Z" fill="#135747"/>
<path d="M117.89 67.2369H116.675C116.6 67.2369 116.543 67.1799 116.543 67.1229V60.5695C116.543 60.5126 116.6 60.4556 116.675 60.4556H118.023V60.7595C118.44 60.4936 118.915 60.3606 119.427 60.3606C120.243 60.3606 120.87 60.6075 121.325 61.0824C121.781 61.5383 122.008 62.1652 122.008 62.944C122.008 63.7418 121.762 64.3876 121.249 64.8815C120.756 65.3564 120.111 65.6033 119.351 65.6033C118.934 65.6033 118.535 65.5273 118.194 65.3944C118.099 65.3564 118.004 65.4134 118.004 65.4893V67.1419C118.023 67.1989 117.966 67.2369 117.89 67.2369ZM118.099 62.906C118.099 63.9887 118.554 64.5396 119.276 64.5396C119.636 64.5396 119.921 64.4256 120.149 64.1597C120.376 63.8937 120.49 63.4758 120.49 62.925C120.49 62.4121 120.376 62.0132 120.168 61.7473C119.978 61.5003 119.693 61.3863 119.332 61.3863C118.592 61.3863 118.156 61.7663 118.099 62.906Z" fill="#135747"/>
<path d="M131.023 65.4704H129.809C129.733 65.4704 129.676 65.4134 129.676 65.3564V62.2982C129.676 61.8803 129.562 61.6903 129.467 61.6143C129.315 61.5004 129.22 61.4624 129.012 61.4244C128.632 61.3674 128.082 61.5763 127.835 62.0132C127.816 62.0322 127.797 62.0702 127.797 62.0892V65.3564C127.797 65.4134 127.74 65.4704 127.664 65.4704H126.449C126.373 65.4704 126.317 65.4134 126.317 65.3564V62.2982C126.317 61.8803 126.203 61.7093 126.127 61.6333C126.032 61.5194 125.956 61.4624 125.652 61.4434C125.254 61.4054 124.684 61.6523 124.457 62.0322C124.438 62.0702 124.419 62.0892 124.419 62.1082V65.3754C124.419 65.4324 124.362 65.4894 124.286 65.4894H123.071C122.995 65.4894 122.938 65.4324 122.938 65.3754V60.5886C122.938 60.5316 122.995 60.4746 123.071 60.4746H124.419V60.8165C124.836 60.5316 125.311 60.3796 125.804 60.3796C126.525 60.3796 127.057 60.5696 127.379 60.9685C127.417 61.0255 127.512 61.0255 127.569 60.9875C127.835 60.7785 128.063 60.6266 128.29 60.5506C128.575 60.4366 128.86 60.3986 129.163 60.3986C130.454 60.3986 131.137 61.0635 131.137 62.2982V65.3944C131.156 65.4134 131.099 65.4704 131.023 65.4704Z" fill="#135747"/>
<path d="M147.06 65.5274C146.586 65.5274 146.244 65.4514 146.017 65.3184C145.77 65.1665 145.618 64.9765 145.561 64.7296C145.504 64.5206 145.485 64.2357 145.485 63.9128V61.6144C145.485 61.5574 145.428 61.5004 145.352 61.5004H144.897C144.821 61.5004 144.764 61.4434 144.764 61.3864V60.5696C144.764 60.5126 144.821 60.4556 144.897 60.4556H145.352C145.428 60.4556 145.485 60.3987 145.485 60.3417V59.4299C145.485 59.3729 145.542 59.3159 145.618 59.3159H146.833C146.909 59.3159 146.966 59.3729 146.966 59.4299V60.3417C146.966 60.3987 147.023 60.4556 147.098 60.4556H147.763C147.839 60.4556 147.896 60.5126 147.896 60.5696V61.3864C147.896 61.4434 147.839 61.5004 147.763 61.5004H147.098C147.023 61.5004 146.966 61.5574 146.966 61.6144V63.9698C146.966 64.3497 147.041 64.4257 147.041 64.4257C147.079 64.4637 147.136 64.5016 147.288 64.5016C147.459 64.5016 147.611 64.5017 147.763 64.4827L148.009 64.4447V65.4514L147.82 65.4894C147.573 65.5084 147.326 65.5274 147.06 65.5274Z" fill="#135747"/>
<path d="M159.814 65.4704H158.618C158.543 65.4704 158.486 65.4134 158.486 65.3564V61.6143C158.486 61.4813 158.296 61.4623 158.239 61.5763L156.645 65.4134C156.626 65.4514 156.588 65.4893 156.531 65.4893H155.468C155.411 65.4893 155.373 65.4514 155.354 65.4134L153.76 61.5763C153.703 61.4623 153.513 61.4813 153.513 61.6143V65.3564C153.513 65.4134 153.456 65.4704 153.38 65.4704H152.204C152.128 65.4704 152.071 65.4134 152.071 65.3564V58.822C152.071 58.765 152.128 58.708 152.204 58.708H153.931C153.988 58.708 154.026 58.746 154.045 58.784L155.886 63.3239C155.923 63.4189 156.094 63.4189 156.132 63.3239L157.973 58.784C157.992 58.746 158.03 58.708 158.087 58.708H159.814C159.89 58.708 159.947 58.765 159.947 58.822V65.3564C159.947 65.4134 159.89 65.4704 159.814 65.4704Z" fill="#135747"/>
<path d="M182.228 65.4704H181.032C180.956 65.4704 180.899 65.4134 180.899 65.3565V61.6144C180.899 61.5574 180.843 61.5004 180.767 61.5004H180.178C180.102 61.5004 180.045 61.4434 180.045 61.3864V60.5696C180.045 60.5126 180.102 60.4557 180.178 60.4557H180.88V60.2467C180.88 59.164 181.507 58.5941 182.702 58.5941C183.044 58.5941 183.31 58.6131 183.5 58.6511L183.67 58.6891V59.8098L183.405 59.7718C183.234 59.7528 183.044 59.7338 182.835 59.7338C182.645 59.7338 182.513 59.7718 182.437 59.8288C182.361 59.9048 182.323 60.0568 182.323 60.2657V60.4557H183.272C183.348 60.4557 183.405 60.5126 183.405 60.5696V61.3864C183.405 61.4434 183.348 61.5004 183.272 61.5004H182.437C182.361 61.5004 182.304 61.5574 182.304 61.6144V65.3565C182.361 65.4134 182.304 65.4704 182.228 65.4704Z" fill="#135747"/>
<path d="M198.056 65.5274C197.582 65.5274 197.24 65.4514 197.012 65.3184C196.766 65.1665 196.614 64.9575 196.557 64.7296C196.5 64.5396 196.481 64.2737 196.481 63.9128V61.6144C196.481 61.5574 196.424 61.5004 196.348 61.5004H195.893C195.817 61.5004 195.76 61.4434 195.76 61.3864V60.5696C195.76 60.5126 195.817 60.4556 195.893 60.4556H196.348C196.424 60.4556 196.481 60.3987 196.481 60.3417V59.4299C196.481 59.3729 196.538 59.3159 196.614 59.3159H197.828C197.904 59.3159 197.961 59.3729 197.961 59.4299V60.3417C197.961 60.3987 198.018 60.4556 198.094 60.4556H198.758C198.834 60.4556 198.891 60.5126 198.891 60.5696V61.3864C198.891 61.4434 198.834 61.5004 198.758 61.5004H198.094C198.018 61.5004 197.961 61.5574 197.961 61.6144V63.9698C197.961 64.3497 198.037 64.4257 198.037 64.4257C198.094 64.4637 198.17 64.5016 198.284 64.5016C198.455 64.5016 198.607 64.5017 198.758 64.4827L199.005 64.4447V65.4514L198.815 65.4894C198.588 65.5084 198.322 65.5274 198.056 65.5274Z" fill="#135747"/>
<path d="M207.488 65.4704H206.274C206.198 65.4704 206.141 65.4134 206.141 65.3564V60.5696C206.141 60.5126 206.198 60.4556 206.274 60.4556H207.621V60.7975C208.134 60.3986 208.741 60.3037 209.386 60.3986L209.576 60.4176V61.6713L209.291 61.6143C209.197 61.5953 209.026 61.5764 208.722 61.5764C208.305 61.5764 207.944 61.7473 207.64 62.0702C207.621 62.0892 207.602 62.1272 207.602 62.1462V65.3754C207.602 65.4134 207.545 65.4704 207.488 65.4704Z" fill="#135747"/>
<path d="M211.455 65.4704H210.241C210.165 65.4704 210.108 65.4134 210.108 65.3565V60.5696C210.108 60.5126 210.165 60.4557 210.241 60.4557H211.455C211.531 60.4557 211.588 60.5126 211.588 60.5696V65.3565C211.569 65.4134 211.512 65.4704 211.455 65.4704ZM211.455 59.9808H210.241C210.165 59.9808 210.108 59.9238 210.108 59.8668V58.8031C210.108 58.7461 210.165 58.6891 210.241 58.6891H211.455C211.531 58.6891 211.588 58.7461 211.588 58.8031V59.8668C211.569 59.9238 211.512 59.9808 211.455 59.9808Z" fill="#135747"/>
<path d="M221.722 67.332C220.963 67.332 220.356 67.199 219.901 66.9141C219.426 66.6101 219.179 66.2112 219.179 65.7174V65.5464H220.679V65.7364C220.679 65.8883 220.679 66.2872 221.722 66.2872C222.14 66.2872 222.444 66.1922 222.671 66.0213C222.842 65.8693 222.956 65.5844 222.975 65.1665C222.577 65.4324 222.102 65.5654 221.59 65.5654C220.774 65.5654 220.147 65.3185 219.673 64.8436C219.236 64.3877 219.009 63.7608 219.009 62.982C219.009 62.1842 219.255 61.5384 219.749 61.0635C220.242 60.5886 220.887 60.3417 221.647 60.3417C222.159 60.3417 222.596 60.4367 222.975 60.6266V60.4367H224.304C224.38 60.4367 224.436 60.4936 224.436 60.5506V64.9006C224.436 66.4962 223.506 67.332 221.722 67.332ZM221.704 61.3864C221.343 61.3864 221.058 61.5004 220.849 61.7663C220.622 62.0323 220.508 62.4502 220.508 63.001C220.508 63.5139 220.622 63.9128 220.83 64.1787C221.039 64.4257 221.305 64.5396 221.666 64.5396C222.14 64.5396 222.633 64.4067 222.88 63.8938C223.108 63.4189 223.07 62.4882 222.823 62.0133C222.615 61.5954 222.178 61.3864 221.704 61.3864Z" fill="#135747"/>
<path d="M135.123 65.5843C134.231 65.5843 133.491 65.3564 132.94 64.9005C132.39 64.4256 132.105 63.7798 132.105 62.982C132.105 62.1652 132.371 61.5193 132.921 61.0634C133.453 60.6075 134.155 60.3606 135.009 60.3606C135.882 60.3606 136.584 60.5885 137.116 61.0444C137.647 61.5003 137.913 62.1462 137.913 62.982V63.3809H133.775C133.699 63.3809 133.642 63.4378 133.642 63.5138C133.68 63.8178 133.87 64.0647 134.079 64.2167C134.364 64.4446 134.705 64.5586 135.123 64.5586C135.426 64.5586 135.711 64.5016 135.977 64.3686C136.186 64.2546 136.318 64.1027 136.394 63.9127L136.432 63.7228H137.856L137.818 63.9507C137.723 64.4826 137.419 64.9005 136.907 65.1854C136.413 65.4324 135.825 65.5843 135.123 65.5843ZM136.337 62.3171C136.281 61.9562 136.11 61.8232 135.92 61.6713C135.673 61.4813 135.37 61.3863 135.009 61.3863C134.648 61.3863 134.364 61.4813 134.117 61.6713C133.908 61.8232 133.737 61.9752 133.68 62.3171" fill="#135747"/>
<path d="M193.084 65.5844C192.211 65.5844 191.508 65.3564 190.977 64.9005C190.446 64.4446 190.18 63.7988 190.18 62.982C190.18 62.1652 190.446 61.5194 190.977 61.0635C191.508 60.6076 192.211 60.3796 193.084 60.3796C193.748 60.3796 194.336 60.5886 194.792 60.8925C195.399 61.2914 195.437 61.6903 195.513 62.0322C195.551 62.2412 195.551 62.5451 195.551 62.5451H194.298C194.222 62.5451 194.165 62.4881 194.165 62.4311C194.165 62.3172 194.165 62.1462 194.09 62.0132C194.052 61.9373 194.033 61.8233 193.805 61.6523C193.634 61.5384 193.425 61.4434 193.103 61.4434C192.647 61.4434 192.438 61.5194 192.116 61.8423C191.85 62.1082 191.679 62.4501 191.679 62.982C191.679 63.5139 191.812 63.9128 192.078 64.1597C192.344 64.4256 192.666 64.5396 193.103 64.5396C193.387 64.5396 193.653 64.4826 193.843 64.3497C194.033 64.2357 194.165 64.0457 194.165 63.8368L194.184 63.4189H195.608L195.551 63.9128C195.456 64.4446 195.247 64.8815 194.773 65.1665C194.317 65.4514 193.767 65.5844 193.084 65.5844Z" fill="#135747"/>
<path d="M163.268 65.5843C162.661 65.5843 162.13 65.4514 161.731 65.1664C161.313 64.8815 161.086 64.5016 161.086 64.0457C161.086 62.83 162.319 62.2221 164.768 62.2221H165.033C165.071 61.9752 165.071 61.9182 164.976 61.7473C164.938 61.6713 164.9 61.6143 164.73 61.5573C164.559 61.5003 164.331 61.4053 163.932 61.4243C162.984 61.4433 162.775 61.8422 162.718 61.9942L162.699 62.1842H161.238L161.257 61.9752C161.332 60.9115 162.243 60.3606 163.951 60.3606C164.73 60.3606 165.356 60.4936 165.792 60.7405C166.267 61.0064 166.514 61.5383 166.514 62.2981V65.3564C166.514 65.4134 166.457 65.4704 166.381 65.4704H165.052V65.1854C164.559 65.4514 163.951 65.5843 163.268 65.5843ZM164.274 63.2289C163.648 63.2099 162.585 63.4948 162.585 64.0077C162.585 64.1787 162.661 64.2926 162.794 64.3686C163.135 64.5776 163.781 64.5396 164.179 64.4446C164.426 64.3876 164.711 64.2546 164.919 64.0457C165.09 63.8747 165.071 63.5518 164.919 63.4188C164.843 63.3429 164.692 63.2289 164.274 63.2289Z" fill="#135747"/>
<path d="M185.948 65.5843C185.34 65.5843 184.809 65.4514 184.41 65.1664C183.993 64.8815 183.765 64.5016 183.765 64.0457C183.765 62.83 184.999 62.2221 187.447 62.2221H187.713C187.751 61.9752 187.751 61.9182 187.656 61.7473C187.618 61.6713 187.58 61.6143 187.409 61.5573C187.238 61.5003 187.01 61.4053 186.612 61.4243C185.663 61.4433 185.454 61.8422 185.397 61.9942L185.378 62.1842H183.917L183.936 61.9752C184.012 60.9115 184.923 60.3606 186.631 60.3606C187.409 60.3606 188.035 60.4936 188.472 60.7405C188.946 61.0064 189.193 61.5383 189.193 62.2981V65.3564C189.193 65.4134 189.136 65.4704 189.06 65.4704H187.732V65.1854C187.219 65.4514 186.631 65.5843 185.948 65.5843ZM186.934 63.2289C186.308 63.2099 185.245 63.4948 185.245 64.0077C185.245 64.1787 185.321 64.2926 185.454 64.3686C185.796 64.5776 186.441 64.5396 186.84 64.4446C187.086 64.3876 187.371 64.2546 187.58 64.0457C187.751 63.8747 187.732 63.5518 187.58 63.4188C187.504 63.3429 187.371 63.2289 186.934 63.2289Z" fill="#135747"/>
<path d="M176.421 65.5843C175.016 65.5843 174.257 64.9195 174.257 63.6848V60.5695C174.257 60.5125 174.314 60.4556 174.39 60.4556H175.604C175.68 60.4556 175.737 60.5125 175.737 60.5695V63.6468C175.737 63.9697 175.889 64.1597 176.003 64.2926C176.117 64.4066 176.25 64.5016 176.572 64.5206C177.142 64.5586 177.901 64.3876 177.901 63.6278V60.5885C177.901 60.5315 177.958 60.4746 178.034 60.4746H179.229C179.305 60.4746 179.362 60.5315 179.362 60.5885V65.3754C179.362 65.4323 179.305 65.4893 179.229 65.4893H177.901V65.1474C177.464 65.4323 176.971 65.5843 176.421 65.5843Z" fill="#135747"/>
<path d="M201.833 65.5843C200.429 65.5843 199.669 64.9195 199.669 63.6848V60.5695C199.669 60.5125 199.726 60.4556 199.802 60.4556H201.017C201.093 60.4556 201.15 60.5125 201.15 60.5695V63.6468C201.15 63.9697 201.302 64.1597 201.415 64.2926C201.529 64.4066 201.662 64.5016 201.985 64.5206C202.554 64.5586 203.313 64.3876 203.313 63.6278V60.5885C203.313 60.5315 203.37 60.4746 203.446 60.4746H204.642C204.718 60.4746 204.775 60.5315 204.775 60.5885V65.3754C204.775 65.4323 204.718 65.4893 204.642 65.4893H203.313V65.1474C202.877 65.4323 202.383 65.5843 201.833 65.5843Z" fill="#135747"/>
<path d="M141.86 60.3417C143.265 60.3417 144.024 61.0065 144.024 62.2412V65.3564C144.024 65.4134 143.967 65.4704 143.891 65.4704H142.676C142.6 65.4704 142.543 65.4134 142.543 65.3564V62.2792C142.543 61.9563 142.392 61.7663 142.278 61.6334C142.164 61.5194 142.031 61.4244 141.708 61.4054C141.139 61.3674 140.38 61.5384 140.38 62.2982V65.3375C140.38 65.3944 140.323 65.4514 140.247 65.4514H139.051C138.975 65.4514 138.918 65.3944 138.918 65.3375V60.5506C138.918 60.4936 138.975 60.4367 139.051 60.4367H140.38V60.7786C140.816 60.4936 141.329 60.3417 141.86 60.3417Z" fill="#135747"/>
<path d="M215.877 60.3417C217.281 60.3417 218.041 61.0065 218.041 62.2412V65.3564C218.041 65.4134 217.984 65.4704 217.908 65.4704H216.693C216.617 65.4704 216.56 65.4134 216.56 65.3564V62.2792C216.56 61.9563 216.408 61.7663 216.295 61.6334C216.181 61.5194 216.048 61.4244 215.725 61.4054C215.156 61.3674 214.397 61.5384 214.397 62.2982V65.3375C214.397 65.3944 214.34 65.4514 214.264 65.4514H213.068C212.992 65.4514 212.935 65.3944 212.935 65.3375V60.5506C212.935 60.4936 212.992 60.4367 213.068 60.4367H214.397V60.7786C214.833 60.4936 215.346 60.3417 215.877 60.3417Z" fill="#135747"/>
<path d="M170.803 60.3417C172.207 60.3417 172.966 61.0065 172.966 62.2412V65.3564C172.966 65.4134 172.909 65.4704 172.833 65.4704H171.619C171.543 65.4704 171.486 65.4134 171.486 65.3564V62.2792C171.486 61.9563 171.334 61.7663 171.22 61.6334C171.106 61.5194 170.973 61.4244 170.651 61.4054C170.081 61.3674 169.322 61.5384 169.322 62.2982V65.3375C169.322 65.3944 169.265 65.4514 169.189 65.4514H167.994C167.918 65.4514 167.861 65.3944 167.861 65.3375V60.5506C167.861 60.4936 167.918 60.4367 167.994 60.4367H169.322V60.7786C169.778 60.4936 170.271 60.3417 170.803 60.3417Z" fill="#135747"/>
<path d="M75.9282 49.4193H50.9712C50.3639 49.4193 49.8894 48.9254 49.8894 48.2986V19.0837C49.8894 18.4569 50.3829 17.963 50.9712 17.963H74.5997C75.207 17.963 75.6815 18.4569 75.6815 19.0837V24.9343C75.6815 25.2382 75.4347 25.5042 75.1311 25.5042H59.2649C58.9612 25.5042 58.7145 25.7511 58.7145 26.074V29.4552C58.7145 29.7591 58.9612 30.0251 59.2649 30.0251H73.5369C73.8405 30.0251 74.0872 30.272 74.0872 30.5949V36.5975C74.0872 36.9014 73.8405 37.1673 73.5369 37.1673H59.2649C58.9612 37.1673 58.7145 37.4142 58.7145 37.7372V41.3653C58.7145 41.6692 58.9612 41.9352 59.2649 41.9352H76.4596C76.7632 41.9352 77.01 42.1821 77.01 42.505V48.3556C77.01 48.9064 76.5355 49.4193 75.9282 49.4193Z" fill="#135747"/>
</svg>
