<svg width="330" height="57" viewBox="0 0 330 57" fill="none" xmlns="http://www.w3.org/2000/svg">
<rect width="330" height="57" fill="#FDFFFE"/>
<path d="M131.122 11.1896C131.122 11.151 131.122 11.1221 131.112 11.1124C130.881 10.6494 128.615 11.7588 128.355 11.8746C128.047 12 127.738 12.1351 127.43 12.2798C127.073 12.4438 126.726 12.6175 126.369 12.7815C125.974 12.9841 125.579 13.1867 125.184 13.3893C124.75 13.6208 124.316 13.862 123.883 14.1032C123.41 14.3734 122.948 14.6435 122.485 14.9233C121.993 15.2223 121.502 15.5407 121.029 15.8591C120.518 16.2064 120.017 16.5537 119.535 16.9203C119.024 17.3062 118.523 17.7114 118.041 18.1263C117.53 18.5604 117.039 19.0139 116.566 19.4866C116.075 19.9786 115.603 20.49 115.149 21.0206C114.677 21.5802 114.224 22.1494 113.8 22.7475C113.357 23.365 112.932 24.0114 112.537 24.6578C112.123 25.3427 111.737 26.047 111.361 26.7513C110.976 27.4942 110.609 28.2563 110.262 29.0089C109.906 29.8 109.559 30.6007 109.221 31.4015C108.874 32.2215 108.547 33.0416 108.219 33.8713C108.209 33.9002 108.171 33.9967 108.113 34.1221C108.016 34.344 107.959 34.5949 108.036 34.836C108.103 35.0676 108.277 35.2509 108.498 35.386C108.614 35.4535 108.951 35.6079 109 35.6175C109.135 35.685 109.27 35.7429 109.405 35.8008C109.559 35.8683 109.713 35.9359 109.877 36.0131C110.05 36.0902 110.233 36.1674 110.407 36.2446C110.6 36.3314 110.793 36.4183 110.995 36.5051C111.207 36.6016 111.419 36.698 111.622 36.7945C111.843 36.891 112.065 36.9875 112.287 37.0936C112.518 37.1997 112.749 37.3058 112.99 37.412C113.231 37.5181 113.472 37.6242 113.713 37.74C113.964 37.8461 114.214 37.9619 114.455 38.0777C114.706 38.1934 114.966 38.3092 115.217 38.4153C115.477 38.5311 115.737 38.6469 115.998 38.7626C116.268 38.8784 116.528 39.0038 116.788 39.1196C117.058 39.2354 117.318 39.3511 117.588 39.4766C117.858 39.5923 118.128 39.7178 118.398 39.8432C118.562 39.9204 118.735 39.9879 118.899 40.0651C118.321 33.7941 118.832 20.6733 131.122 11.1896Z" fill="#135747"/>
<path d="M128.519 27.5717C128.529 27.3884 128.558 27.2051 128.519 27.0121C128.48 26.8384 128.355 26.713 128.191 26.6165C128.104 26.5683 128.008 26.5297 127.912 26.4815C127.854 26.4525 127.796 26.4236 127.729 26.4043L121.405 23.5293C120.759 25.015 120.258 26.5008 119.882 27.9479L126.9 31.1413C126.9 31.1413 127.835 31.5947 128.162 31.5272C128.509 31.4597 128.509 31.2474 128.509 30.9291C128.48 30.1765 128.48 29.424 128.49 28.6619C128.49 28.2952 128.5 27.9286 128.519 27.5717Z" fill="#135747"/>
<path d="M118.899 40.0751C119.005 40.1234 119.111 40.1716 119.217 40.2102C119.487 40.3356 119.767 40.4514 120.036 40.5768C120.306 40.7022 120.586 40.818 120.856 40.9434C121.126 41.0688 121.396 41.1846 121.675 41.31C121.945 41.4354 122.215 41.5512 122.485 41.6766C122.755 41.7924 123.015 41.9178 123.285 42.0336C123.545 42.1494 123.805 42.2651 124.075 42.3809C124.336 42.4967 124.586 42.6125 124.846 42.7282C125.097 42.8344 125.338 42.9501 125.589 43.0659C125.83 43.172 126.071 43.2781 126.312 43.3843C126.533 43.4904 126.765 43.5869 126.996 43.693C127.208 43.7895 127.42 43.8859 127.642 43.9824C127.844 44.0693 128.037 44.1561 128.239 44.2526C128.423 44.3394 128.606 44.4166 128.789 44.5034C128.953 44.5806 129.117 44.6481 129.28 44.7253C129.425 44.7928 129.579 44.8604 129.724 44.9182C129.849 44.9761 129.984 45.034 130.119 45.0919C130.235 45.1401 130.582 45.3138 130.813 45.1594C131.054 45.0051 130.977 44.7639 130.929 44.6192C130.861 44.4262 130.803 44.2429 130.746 44.05C130.669 43.7991 130.601 43.5579 130.524 43.3071C130.437 42.9984 130.35 42.6896 130.273 42.3809C130.177 42.0047 130.081 41.6284 129.984 41.2618C129.878 40.8276 129.753 40.3742 129.493 39.8725C129.29 39.5059 128.066 39.0139 128.066 39.0139L118.803 34.7979C118.697 36.8432 118.774 38.6376 118.899 40.0751Z" fill="#135747"/>
<path d="M129.628 18.2129C129.801 17.2482 129.984 16.2834 130.177 15.3187C130.331 14.5372 131.112 11.7394 131.122 11.1895C128.461 13.2444 126.36 15.4634 124.692 17.7499L128.856 19.6408C128.856 19.6408 129.165 19.6794 129.29 19.5636C129.579 19.2935 129.531 18.7629 129.628 18.2129Z" fill="#135747"/>
<path d="M181.718 36.081H178.961C178.739 36.081 178.547 35.946 178.46 35.7434L178.248 35.2514C178.219 35.1838 178.132 35.1645 178.074 35.2128C177.891 35.3768 177.833 35.4347 177.496 35.6083C176.725 36.0135 176.089 36.0714 175.105 36.0714C173.052 36.0714 170.768 36.2837 168.821 34.8944C166.835 33.4762 166.854 31.1511 166.845 28.5945C166.835 25.7098 166.594 23.3847 168.271 21.7929C170.16 19.9888 172.011 20.1142 174.556 20.1142C176.811 20.1142 178.884 20.2299 180.166 21.2622C181.313 22.1981 182.103 23.6742 182.248 25.4686C182.277 25.7966 182.017 26.0764 181.699 26.0764H178.749C178.479 26.0764 178.248 25.8738 178.209 25.594C178.171 25.3143 178.065 25.0152 177.631 24.61C176.946 23.9732 176.349 24.0504 175.086 24.0504C173.515 24.0504 171.953 23.9443 171.173 24.9477C170.392 25.951 170.565 26.8482 170.585 28.4015C170.613 30.6494 170.488 31.1993 171.471 32.0483C172.445 32.8973 173.766 32.7237 175.048 32.7237C176.32 32.7237 176.975 32.2895 177.669 31.6528C177.804 31.5274 177.901 31.4405 177.968 31.373C178.036 31.3055 177.987 31.18 177.891 31.18H175.356C175.048 31.18 174.807 30.9292 174.807 30.6108V28.006C174.807 27.6876 175.057 27.4367 175.356 27.4367H181.747C182.055 27.4367 182.296 27.6876 182.296 28.006V35.4925C182.267 35.8302 182.026 36.081 181.718 36.081Z" fill="#135747"/>
<path d="M187.945 36.0996H184.417C184.108 36.0996 183.867 35.8487 183.867 35.5304V20.6923C183.867 20.3739 184.118 20.123 184.417 20.123H187.945C188.253 20.123 188.494 20.3739 188.494 20.6923V35.5207C188.494 35.8391 188.253 36.0996 187.945 36.0996Z" fill="#135747"/>
<path d="M206.076 36.1004H201.941C201.777 36.1004 201.613 36.0232 201.507 35.8882L194.875 27.2053H194.721V35.5409C194.721 35.8592 194.47 36.1101 194.172 36.1101H190.644C190.335 36.1101 190.094 35.8592 190.094 35.5409V20.6931C190.094 20.3747 190.345 20.1239 190.644 20.1239H194.779C194.943 20.1239 195.107 20.2011 195.213 20.3362L201.844 29.019H202.008V20.6835C202.008 20.3651 202.259 20.1143 202.558 20.1143H206.086C206.394 20.1143 206.635 20.3651 206.635 20.6835V35.5119C206.625 35.8399 206.375 36.1004 206.076 36.1004Z" fill="#135747"/>
<path d="M221.451 36.0996H208.775C208.467 36.0996 208.226 35.8487 208.226 35.5304V20.6923C208.226 20.3739 208.476 20.123 208.775 20.123H220.776C221.084 20.123 221.325 20.3739 221.325 20.6923V23.6637C221.325 23.8181 221.2 23.9532 221.046 23.9532H212.987C212.833 23.9532 212.708 24.0786 212.708 24.2426V25.9599C212.708 26.1142 212.833 26.2493 212.987 26.2493H220.236C220.39 26.2493 220.516 26.3747 220.516 26.5387V29.5874C220.516 29.7418 220.39 29.8768 220.236 29.8768H212.987C212.833 29.8768 212.708 30.0022 212.708 30.1663V32.009C212.708 32.1633 212.833 32.2984 212.987 32.2984H221.72C221.875 32.2984 222 32.4238 222 32.5878V35.5593C222 35.8391 221.749 36.0996 221.451 36.0996Z" fill="#135747"/>
<path d="M164.695 36.1004H160.56C160.396 36.1004 160.232 36.0232 160.126 35.8882L153.494 27.2053H153.34V35.5409C153.34 35.8592 153.089 36.1101 152.79 36.1101H149.263C148.954 36.1101 148.713 35.8592 148.713 35.5409V20.6931C148.713 20.3747 148.964 20.1239 149.263 20.1239H153.398C153.562 20.1239 153.725 20.2011 153.831 20.3362L160.463 29.019H160.627V20.6835C160.627 20.3651 160.878 20.1143 161.177 20.1143H164.705C165.013 20.1143 165.254 20.3651 165.254 20.6835V35.5119C165.244 35.8399 164.994 36.1004 164.695 36.1004Z" fill="#135747"/>
<path d="M137.262 44.252H136.664C136.626 44.252 136.597 44.223 136.597 44.1941V42.2935C136.597 42.2259 136.5 42.2163 136.471 42.2742L135.662 44.223C135.652 44.2423 135.623 44.2616 135.604 44.2616H135.054C135.025 44.2616 135.006 44.2423 134.996 44.223L134.187 42.2742C134.158 42.2163 134.061 42.2259 134.061 42.2935V44.1941C134.061 44.223 134.033 44.252 133.994 44.252H133.387C133.348 44.252 133.319 44.223 133.319 44.1941V40.8753C133.319 40.8463 133.348 40.8174 133.387 40.8174H134.264C134.293 40.8174 134.312 40.8367 134.322 40.856L135.257 43.1618C135.276 43.21 135.363 43.21 135.382 43.1618L136.317 40.856C136.327 40.8367 136.346 40.8174 136.375 40.8174H137.252C137.291 40.8174 137.32 40.8463 137.32 40.8753V44.1941C137.329 44.223 137.3 44.252 137.262 44.252Z" fill="#135747"/>
<path d="M139.431 44.3103C138.978 44.3103 138.602 44.1946 138.322 43.963C138.043 43.7218 137.898 43.3938 137.898 42.9886C137.898 42.5738 138.033 42.2457 138.312 42.0142C138.582 41.7826 138.939 41.6572 139.373 41.6572C139.816 41.6572 140.173 41.773 140.443 42.0045C140.713 42.2361 140.848 42.5641 140.848 42.9886V43.1912H138.746C138.708 43.1912 138.679 43.2202 138.679 43.2587C138.698 43.4131 138.794 43.5385 138.9 43.6157C139.045 43.7315 139.219 43.7894 139.431 43.7894C139.585 43.7894 139.729 43.7604 139.864 43.6929C139.97 43.635 140.038 43.5578 140.076 43.4613L140.096 43.3649H140.819L140.799 43.4806C140.751 43.7508 140.597 43.963 140.337 44.1077C140.086 44.2332 139.787 44.3103 139.431 44.3103ZM140.047 42.6509C140.019 42.4676 139.932 42.4001 139.835 42.3229C139.71 42.2264 139.556 42.1782 139.373 42.1782C139.19 42.1782 139.045 42.2264 138.92 42.3229C138.814 42.4001 138.727 42.4773 138.698 42.6509" fill="#135747"/>
<path d="M142.477 44.3098C142.062 44.3098 141.734 44.1844 141.513 43.9432C141.291 43.7117 141.175 43.3933 141.175 42.9978C141.175 42.5926 141.301 42.2645 141.551 42.0233C141.802 41.7821 142.13 41.6567 142.515 41.6567C142.737 41.6567 142.93 41.6953 143.103 41.7629C143.151 41.7821 143.199 41.7532 143.199 41.7146V40.8753C143.199 40.8463 143.228 40.8174 143.267 40.8174H143.874C143.913 40.8174 143.942 40.8463 143.942 40.8753V44.1941C143.942 44.223 143.913 44.252 143.874 44.252H143.199V44.0976C142.978 44.2423 142.737 44.3098 142.477 44.3098ZM142.544 42.1777C142.351 42.1777 142.216 42.2356 142.11 42.3707C141.995 42.5057 141.937 42.718 141.937 42.9978C141.937 43.2582 141.995 43.4608 142.101 43.5959C142.207 43.7213 142.342 43.7792 142.525 43.7792C142.766 43.7792 142.968 43.6634 143.065 43.5091C143.19 43.3065 143.248 42.9302 143.132 42.5347C143.065 42.3128 142.824 42.1777 142.544 42.1777Z" fill="#135747"/>
<path d="M145.301 44.2518H144.684C144.645 44.2518 144.616 44.2229 144.616 44.1939V41.7627C144.616 41.7338 144.645 41.7048 144.684 41.7048H145.301C145.339 41.7048 145.368 41.7338 145.368 41.7627V44.1939C145.368 44.2229 145.339 44.2518 145.301 44.2518ZM145.301 41.4637H144.684C144.645 41.4637 144.616 41.4347 144.616 41.4058V40.8655C144.616 40.8366 144.645 40.8076 144.684 40.8076H145.301C145.339 40.8076 145.368 40.8366 145.368 40.8655V41.4058C145.368 41.4347 145.339 41.4637 145.301 41.4637Z" fill="#135747"/>
<path d="M147.335 44.3104C146.891 44.3104 146.535 44.1947 146.265 43.9631C145.995 43.7316 145.86 43.4036 145.86 42.9887C145.86 42.5739 145.995 42.2459 146.265 42.0143C146.535 41.7828 146.891 41.667 147.335 41.667C147.672 41.667 147.971 41.7731 148.202 41.9275C148.511 42.1301 148.53 42.3327 148.569 42.5063C148.588 42.6125 148.588 42.7668 148.588 42.7668H147.952C147.913 42.7668 147.884 42.7379 147.884 42.7089C147.884 42.6511 147.884 42.5642 147.846 42.4967C147.826 42.4581 147.817 42.4002 147.701 42.3134C147.614 42.2555 147.508 42.2073 147.344 42.2073C147.113 42.2073 147.007 42.2459 146.843 42.4099C146.708 42.5449 146.621 42.7186 146.621 42.9887C146.621 43.2589 146.689 43.4615 146.824 43.5869C146.959 43.7219 147.123 43.7798 147.344 43.7798C147.489 43.7798 147.614 43.7509 147.72 43.6834C147.817 43.6255 147.884 43.529 147.884 43.4229L147.894 43.2106H148.617L148.588 43.4615C148.549 43.7316 148.434 43.9535 148.193 44.0982C147.961 44.2429 147.682 44.3104 147.335 44.3104Z" fill="#135747"/>
<path d="M149.937 44.3103C149.629 44.3103 149.359 44.2428 149.157 44.0981C148.944 43.9534 148.829 43.7604 148.829 43.5289C148.829 42.9114 149.455 42.6027 150.699 42.6027H150.834C150.853 42.4773 150.853 42.4483 150.805 42.3615C150.786 42.3229 150.766 42.294 150.68 42.265C150.593 42.2361 150.477 42.1878 150.275 42.1975C149.793 42.2071 149.687 42.4097 149.658 42.4869L149.648 42.5834H148.906L148.916 42.4773C148.954 41.937 149.417 41.6572 150.284 41.6572C150.68 41.6572 150.998 41.7248 151.219 41.8502C151.46 41.9852 151.586 42.2554 151.586 42.6413V44.1946C151.586 44.2235 151.557 44.2524 151.518 44.2524H150.843V44.1077C150.593 44.2428 150.284 44.3103 149.937 44.3103ZM150.448 43.114C150.13 43.1044 149.59 43.2491 149.59 43.5096C149.59 43.5964 149.629 43.6543 149.696 43.6929C149.87 43.799 150.198 43.7797 150.4 43.7315C150.525 43.7025 150.67 43.635 150.776 43.5289C150.863 43.442 150.853 43.278 150.776 43.2105C150.737 43.1719 150.66 43.114 150.448 43.114Z" fill="#135747"/>
<path d="M152.954 44.252H152.337C152.299 44.252 152.27 44.223 152.27 44.1941V40.8753C152.27 40.8463 152.299 40.8174 152.337 40.8174H152.954C152.993 40.8174 153.022 40.8463 153.022 40.8753V44.1941C153.012 44.223 152.983 44.252 152.954 44.252Z" fill="#135747"/>
<path d="M158.564 44.252H155.48C155.441 44.252 155.412 44.223 155.412 44.1941V40.8753C155.412 40.8463 155.441 40.8174 155.48 40.8174H158.478C158.516 40.8174 158.545 40.8463 158.545 40.8753V41.348C158.545 41.3769 158.516 41.4059 158.478 41.4059H156.241C156.203 41.4059 156.174 41.4348 156.174 41.4638V42.1295C156.174 42.1584 156.203 42.1874 156.241 42.1874H158.324C158.362 42.1874 158.391 42.2163 158.391 42.2452V42.718C158.391 42.7469 158.362 42.7759 158.324 42.7759H156.241C156.203 42.7759 156.174 42.8048 156.174 42.8337V43.6056C156.174 43.6345 156.203 43.6634 156.241 43.6634H158.574C158.613 43.6634 158.642 43.6924 158.642 43.7213V44.1941C158.622 44.223 158.603 44.252 158.564 44.252Z" fill="#135747"/>
<path d="M161.745 45.1496H161.138C161.1 45.1496 161.071 45.1206 161.071 45.0917V44.2041C161.071 44.1559 161.013 44.1366 160.974 44.1559C160.791 44.2523 160.589 44.3006 160.357 44.3006C159.943 44.3006 159.615 44.1751 159.384 43.934C159.162 43.7024 159.046 43.384 159.046 42.9885C159.046 42.5833 159.172 42.2456 159.422 42.0141C159.683 41.7729 160.001 41.6475 160.386 41.6475C160.637 41.6475 160.868 41.6957 161.071 41.7922V41.6957H161.745C161.784 41.6957 161.813 41.7246 161.813 41.7536V45.082C161.803 45.1303 161.774 45.1496 161.745 45.1496ZM160.415 42.1781C160.232 42.1781 160.087 42.236 159.972 42.371C159.856 42.5061 159.798 42.7184 159.798 42.9981C159.798 43.2586 159.856 43.4612 159.962 43.5963C160.068 43.7217 160.203 43.7603 160.386 43.7603C160.627 43.7603 160.839 43.6928 160.984 43.4323C161.09 43.249 161.1 42.7087 160.984 42.4675C160.878 42.2553 160.656 42.1781 160.415 42.1781Z" fill="#135747"/>
<path d="M163.577 44.3099C162.864 44.3099 162.478 43.9723 162.478 43.3452V41.763C162.478 41.734 162.507 41.7051 162.545 41.7051H163.162C163.201 41.7051 163.23 41.734 163.23 41.763V43.3259C163.23 43.4899 163.307 43.5864 163.365 43.6539C163.423 43.7118 163.49 43.76 163.654 43.7697C163.943 43.789 164.329 43.7021 164.329 43.3162V41.7726C164.329 41.7437 164.358 41.7147 164.396 41.7147H165.003C165.042 41.7147 165.071 41.7437 165.071 41.7726V44.2038C165.071 44.2328 165.042 44.2617 165.003 44.2617H164.329V44.088C164.107 44.2328 163.856 44.3099 163.577 44.3099Z" fill="#135747"/>
<path d="M166.44 44.2518H165.823C165.784 44.2518 165.755 44.2229 165.755 44.1939V41.7627C165.755 41.7338 165.784 41.7048 165.823 41.7048H166.44C166.478 41.7048 166.507 41.7338 166.507 41.7627V44.1939C166.507 44.2229 166.478 44.2518 166.44 44.2518ZM166.44 41.4637H165.823C165.784 41.4637 165.755 41.4347 165.755 41.4058V40.8655C165.755 40.8366 165.784 40.8076 165.823 40.8076H166.44C166.478 40.8076 166.507 40.8366 166.507 40.8655V41.4058C166.507 41.4347 166.478 41.4637 166.44 41.4637Z" fill="#135747"/>
<path d="M167.876 45.1497H167.259C167.22 45.1497 167.191 45.1207 167.191 45.0918V41.7634C167.191 41.7344 167.22 41.7055 167.259 41.7055H167.943V41.8598C168.155 41.7248 168.396 41.6572 168.657 41.6572C169.071 41.6572 169.389 41.7826 169.621 42.0238C169.852 42.2554 169.968 42.5738 169.968 42.9693C169.968 43.3745 169.842 43.7025 169.582 43.9534C169.331 44.1946 169.004 44.32 168.618 44.32C168.406 44.32 168.204 44.2814 168.03 44.2139C167.982 44.1946 167.934 44.2235 167.934 44.2621V45.1014C167.943 45.1304 167.914 45.1497 167.876 45.1497ZM167.982 42.95C167.982 43.4999 168.213 43.7797 168.58 43.7797C168.763 43.7797 168.907 43.7218 169.023 43.5868C169.139 43.4517 169.196 43.2394 169.196 42.9597C169.196 42.6992 169.139 42.4966 169.033 42.3615C168.936 42.2361 168.792 42.1782 168.608 42.1782C168.233 42.1782 168.011 42.3712 167.982 42.95Z" fill="#135747"/>
<path d="M174.546 44.2526H173.929C173.891 44.2526 173.862 44.2236 173.862 44.1947V42.6414C173.862 42.4292 173.804 42.3327 173.756 42.2941C173.679 42.2362 173.63 42.2169 173.524 42.1976C173.332 42.1687 173.052 42.2748 172.927 42.4967C172.917 42.5063 172.908 42.5256 172.908 42.5353V44.1947C172.908 44.2236 172.879 44.2526 172.84 44.2526H172.223C172.185 44.2526 172.156 44.2236 172.156 44.1947V42.6414C172.156 42.4292 172.098 42.3423 172.059 42.3037C172.011 42.2459 171.973 42.2169 171.818 42.2073C171.616 42.188 171.327 42.3134 171.211 42.5063C171.201 42.5256 171.192 42.5353 171.192 42.5449V44.2043C171.192 44.2333 171.163 44.2622 171.124 44.2622H170.507C170.469 44.2622 170.44 44.2333 170.44 44.2043V41.7731C170.44 41.7442 170.469 41.7152 170.507 41.7152H171.192V41.8889C171.404 41.7442 171.645 41.667 171.895 41.667C172.262 41.667 172.532 41.7635 172.695 41.9661C172.715 41.995 172.763 41.995 172.792 41.9757C172.927 41.8696 173.042 41.7924 173.158 41.7538C173.303 41.6959 173.447 41.6766 173.602 41.6766C174.257 41.6766 174.604 42.0143 174.604 42.6414V44.214C174.614 44.2236 174.585 44.2526 174.546 44.2526Z" fill="#135747"/>
<path d="M182.691 44.2808C182.45 44.2808 182.277 44.2422 182.161 44.1746C182.036 44.0975 181.959 44.001 181.93 43.8756C181.901 43.7694 181.891 43.6247 181.891 43.4607V42.2933C181.891 42.2644 181.862 42.2355 181.824 42.2355H181.593C181.554 42.2355 181.525 42.2065 181.525 42.1776V41.7627C181.525 41.7338 181.554 41.7048 181.593 41.7048H181.824C181.862 41.7048 181.891 41.6759 181.891 41.647V41.1839C181.891 41.1549 181.92 41.126 181.959 41.126H182.576C182.614 41.126 182.643 41.1549 182.643 41.1839V41.647C182.643 41.6759 182.672 41.7048 182.711 41.7048H183.048C183.087 41.7048 183.116 41.7338 183.116 41.7627V42.1776C183.116 42.2065 183.087 42.2355 183.048 42.2355H182.711C182.672 42.2355 182.643 42.2644 182.643 42.2933V43.4897C182.643 43.6826 182.682 43.7212 182.682 43.7212C182.701 43.7405 182.73 43.7598 182.807 43.7598C182.894 43.7598 182.971 43.7598 183.048 43.7501L183.173 43.7308V44.2422L183.077 44.2615C182.952 44.2711 182.826 44.2808 182.691 44.2808Z" fill="#135747"/>
<path d="M189.169 44.252H188.562C188.523 44.252 188.494 44.223 188.494 44.1941V42.2935C188.494 42.2259 188.398 42.2163 188.369 42.2742L187.559 44.223C187.549 44.2423 187.53 44.2616 187.501 44.2616H186.962C186.933 44.2616 186.913 44.2423 186.904 44.223L186.094 42.2742C186.065 42.2163 185.969 42.2259 185.969 42.2935V44.1941C185.969 44.223 185.94 44.252 185.901 44.252H185.304C185.265 44.252 185.236 44.223 185.236 44.1941V40.8753C185.236 40.8463 185.265 40.8174 185.304 40.8174H186.181C186.21 40.8174 186.229 40.8367 186.239 40.856L187.174 43.1618C187.193 43.21 187.28 43.21 187.299 43.1618L188.234 40.856C188.244 40.8367 188.263 40.8174 188.292 40.8174H189.169C189.207 40.8174 189.236 40.8463 189.236 40.8753V44.1941C189.236 44.223 189.207 44.252 189.169 44.252Z" fill="#135747"/>
<path d="M200.553 44.2522H199.946C199.907 44.2522 199.878 44.2233 199.878 44.1943V42.2937C199.878 42.2648 199.849 42.2359 199.811 42.2359H199.512C199.473 42.2359 199.444 42.2069 199.444 42.178V41.7631C199.444 41.7342 199.473 41.7052 199.512 41.7052H199.868V41.5991C199.868 41.0492 200.186 40.7598 200.794 40.7598C200.967 40.7598 201.102 40.7694 201.199 40.7887L201.285 40.808V41.3772L201.15 41.3579C201.064 41.3483 200.967 41.3386 200.861 41.3386C200.765 41.3386 200.697 41.3579 200.659 41.3869C200.62 41.4255 200.601 41.5026 200.601 41.6088V41.7052H201.083C201.122 41.7052 201.15 41.7342 201.15 41.7631V42.178C201.15 42.2069 201.122 42.2359 201.083 42.2359H200.659C200.62 42.2359 200.591 42.2648 200.591 42.2937V44.1943C200.62 44.2233 200.591 44.2522 200.553 44.2522Z" fill="#135747"/>
<path d="M208.592 44.2808C208.351 44.2808 208.177 44.2422 208.062 44.1746C207.936 44.0975 207.859 43.9913 207.83 43.8756C207.801 43.7791 207.792 43.644 207.792 43.4607V42.2933C207.792 42.2644 207.763 42.2355 207.724 42.2355H207.493C207.454 42.2355 207.426 42.2065 207.426 42.1776V41.7627C207.426 41.7338 207.454 41.7048 207.493 41.7048H207.724C207.763 41.7048 207.792 41.6759 207.792 41.647V41.1839C207.792 41.1549 207.821 41.126 207.859 41.126H208.476C208.515 41.126 208.544 41.1549 208.544 41.1839V41.647C208.544 41.6759 208.573 41.7048 208.611 41.7048H208.949C208.987 41.7048 209.016 41.7338 209.016 41.7627V42.1776C209.016 42.2065 208.987 42.2355 208.949 42.2355H208.611C208.573 42.2355 208.544 42.2644 208.544 42.2933V43.4897C208.544 43.6826 208.582 43.7212 208.582 43.7212C208.611 43.7405 208.65 43.7598 208.708 43.7598C208.794 43.7598 208.871 43.7598 208.949 43.7501L209.074 43.7308V44.2422L208.977 44.2615C208.862 44.2711 208.727 44.2808 208.592 44.2808Z" fill="#135747"/>
<path d="M213.383 44.2524H212.766C212.727 44.2524 212.698 44.2234 212.698 44.1945V41.7633C212.698 41.7343 212.727 41.7054 212.766 41.7054H213.45V41.8791C213.71 41.6765 214.019 41.6282 214.346 41.6765L214.443 41.6861V42.3228L214.298 42.2939C214.25 42.2843 214.163 42.2746 214.009 42.2746C213.797 42.2746 213.614 42.3614 213.46 42.5254C213.45 42.5351 213.44 42.5544 213.44 42.564V44.2041C213.44 44.2234 213.411 44.2524 213.383 44.2524Z" fill="#135747"/>
<path d="M215.397 44.2518H214.78C214.742 44.2518 214.713 44.2229 214.713 44.1939V41.7627C214.713 41.7338 214.742 41.7048 214.78 41.7048H215.397C215.436 41.7048 215.465 41.7338 215.465 41.7627V44.1939C215.455 44.2229 215.426 44.2518 215.397 44.2518ZM215.397 41.4637H214.78C214.742 41.4637 214.713 41.4347 214.713 41.4058V40.8655C214.713 40.8366 214.742 40.8076 214.78 40.8076H215.397C215.436 40.8076 215.465 40.8366 215.465 40.8655V41.4058C215.455 41.4347 215.426 41.4637 215.397 41.4637Z" fill="#135747"/>
<path d="M220.612 45.1978C220.226 45.1978 219.918 45.1303 219.687 44.9856C219.446 44.8312 219.32 44.6286 219.32 44.3778V44.2909H220.082V44.3874C220.082 44.4646 220.082 44.6672 220.612 44.6672C220.824 44.6672 220.978 44.6189 221.094 44.5321C221.181 44.4549 221.238 44.3102 221.248 44.098C221.046 44.233 220.805 44.3006 220.544 44.3006C220.13 44.3006 219.812 44.1751 219.571 43.934C219.349 43.7024 219.234 43.384 219.234 42.9885C219.234 42.5833 219.359 42.2553 219.609 42.0141C219.86 41.7729 220.188 41.6475 220.573 41.6475C220.834 41.6475 221.055 41.6957 221.248 41.7922V41.6957H221.923C221.961 41.6957 221.99 41.7246 221.99 41.7536V43.9629C221.99 44.7733 221.518 45.1978 220.612 45.1978ZM220.602 42.1781C220.419 42.1781 220.275 42.236 220.169 42.371C220.053 42.5061 219.995 42.7184 219.995 42.9981C219.995 43.2586 220.053 43.4612 220.159 43.5963C220.265 43.7217 220.4 43.7796 220.583 43.7796C220.824 43.7796 221.075 43.7121 221.2 43.4516C221.316 43.2104 221.296 42.7376 221.171 42.4965C221.065 42.2842 220.843 42.1781 220.602 42.1781Z" fill="#135747"/>
<path d="M176.628 44.3103C176.175 44.3103 175.799 44.1946 175.52 43.963C175.24 43.7218 175.096 43.3938 175.096 42.9886C175.096 42.5738 175.231 42.2457 175.51 42.0142C175.78 41.7826 176.137 41.6572 176.57 41.6572C177.014 41.6572 177.371 41.773 177.64 42.0045C177.91 42.2361 178.045 42.5641 178.045 42.9886V43.1912H175.944C175.905 43.1912 175.876 43.2202 175.876 43.2587C175.896 43.4131 175.992 43.5385 176.098 43.6157C176.243 43.7315 176.416 43.7894 176.628 43.7894C176.783 43.7894 176.927 43.7604 177.062 43.6929C177.168 43.635 177.236 43.5578 177.274 43.4613L177.293 43.3649H178.016L177.997 43.4806C177.949 43.7508 177.795 43.963 177.534 44.1077C177.284 44.2332 176.985 44.3103 176.628 44.3103ZM177.245 42.6509C177.216 42.4676 177.13 42.4001 177.033 42.3229C176.908 42.2264 176.754 42.1782 176.57 42.1782C176.387 42.1782 176.243 42.2264 176.117 42.3229C176.011 42.4001 175.925 42.4773 175.896 42.6509" fill="#135747"/>
<path d="M206.066 44.3104C205.623 44.3104 205.266 44.1947 204.997 43.9631C204.727 43.7316 204.592 43.4036 204.592 42.9887C204.592 42.5739 204.727 42.2459 204.997 42.0143C205.266 41.7828 205.623 41.667 206.066 41.667C206.404 41.667 206.703 41.7731 206.934 41.9275C207.242 42.1301 207.262 42.3327 207.3 42.5063C207.32 42.6125 207.32 42.7668 207.32 42.7668H206.683C206.645 42.7668 206.616 42.7379 206.616 42.7089C206.616 42.6511 206.616 42.5642 206.577 42.4967C206.558 42.4581 206.548 42.4002 206.433 42.3134C206.346 42.2555 206.24 42.2073 206.076 42.2073C205.845 42.2073 205.739 42.2459 205.575 42.4099C205.44 42.5449 205.353 42.7186 205.353 42.9887C205.353 43.2589 205.421 43.4615 205.556 43.5869C205.691 43.7219 205.854 43.7798 206.076 43.7798C206.221 43.7798 206.356 43.7509 206.452 43.6834C206.548 43.6255 206.616 43.529 206.616 43.4229L206.626 43.2106H207.348L207.32 43.4615C207.271 43.7316 207.165 43.9535 206.924 44.0982C206.693 44.2429 206.413 44.3104 206.066 44.3104Z" fill="#135747"/>
<path d="M190.923 44.3103C190.615 44.3103 190.345 44.2428 190.142 44.0981C189.93 43.9534 189.815 43.7604 189.815 43.5289C189.815 42.9114 190.441 42.6027 191.685 42.6027H191.82C191.839 42.4773 191.839 42.4483 191.791 42.3615C191.772 42.3229 191.752 42.294 191.665 42.265C191.579 42.2361 191.463 42.1878 191.261 42.1975C190.779 42.2071 190.673 42.4097 190.644 42.4869L190.634 42.5834H189.892L189.902 42.4773C189.94 41.937 190.403 41.6572 191.27 41.6572C191.665 41.6572 191.984 41.7248 192.205 41.8502C192.446 41.9852 192.572 42.2554 192.572 42.6413V44.1946C192.572 44.2235 192.543 44.2524 192.504 44.2524H191.829V44.1077C191.579 44.2428 191.27 44.3103 190.923 44.3103ZM191.434 43.114C191.116 43.1044 190.576 43.2491 190.576 43.5096C190.576 43.5964 190.615 43.6543 190.682 43.6929C190.856 43.799 191.184 43.7797 191.386 43.7315C191.511 43.7025 191.656 43.635 191.762 43.5289C191.849 43.442 191.839 43.278 191.762 43.2105C191.723 43.1719 191.646 43.114 191.434 43.114Z" fill="#135747"/>
<path d="M202.442 44.3103C202.134 44.3103 201.864 44.2428 201.661 44.0981C201.449 43.9534 201.333 43.7604 201.333 43.5289C201.333 42.9114 201.96 42.6027 203.203 42.6027H203.338C203.358 42.4773 203.358 42.4483 203.31 42.3615C203.29 42.3229 203.271 42.294 203.184 42.265C203.097 42.2361 202.982 42.1878 202.779 42.1975C202.297 42.2071 202.191 42.4097 202.162 42.4869L202.153 42.5834H201.411L201.42 42.4773C201.459 41.937 201.921 41.6572 202.789 41.6572C203.184 41.6572 203.502 41.7248 203.724 41.8502C203.965 41.9852 204.09 42.2554 204.09 42.6413V44.1946C204.09 44.2235 204.061 44.2524 204.023 44.2524H203.348V44.1077C203.088 44.2428 202.789 44.3103 202.442 44.3103ZM202.943 43.114C202.625 43.1044 202.085 43.2491 202.085 43.5096C202.085 43.5964 202.124 43.6543 202.191 43.6929C202.365 43.799 202.693 43.7797 202.895 43.7315C203.02 43.7025 203.165 43.635 203.271 43.5289C203.358 43.442 203.348 43.278 203.271 43.2105C203.232 43.1719 203.165 43.114 202.943 43.114Z" fill="#135747"/>
<path d="M197.603 44.3099C196.89 44.3099 196.504 43.9723 196.504 43.3452V41.763C196.504 41.734 196.533 41.7051 196.572 41.7051H197.189C197.227 41.7051 197.256 41.734 197.256 41.763V43.3259C197.256 43.4899 197.333 43.5864 197.391 43.6539C197.449 43.7118 197.517 43.76 197.68 43.7697C197.97 43.789 198.355 43.7021 198.355 43.3162V41.7726C198.355 41.7437 198.384 41.7147 198.423 41.7147H199.03C199.068 41.7147 199.097 41.7437 199.097 41.7726V44.2038C199.097 44.2328 199.068 44.2617 199.03 44.2617H198.355V44.088C198.133 44.2328 197.883 44.3099 197.603 44.3099Z" fill="#135747"/>
<path d="M210.51 44.3099C209.797 44.3099 209.411 43.9723 209.411 43.3452V41.763C209.411 41.734 209.44 41.7051 209.479 41.7051H210.096C210.134 41.7051 210.163 41.734 210.163 41.763V43.3259C210.163 43.4899 210.24 43.5864 210.298 43.6539C210.356 43.7118 210.423 43.76 210.587 43.7697C210.876 43.789 211.262 43.7021 211.262 43.3162V41.7726C211.262 41.7437 211.291 41.7147 211.329 41.7147H211.937C211.975 41.7147 212.004 41.7437 212.004 41.7726V44.2038C212.004 44.2328 211.975 44.2617 211.937 44.2617H211.262V44.088C211.04 44.2328 210.79 44.3099 210.51 44.3099Z" fill="#135747"/>
<path d="M180.05 41.6475C180.764 41.6475 181.149 41.9851 181.149 42.6122V44.1944C181.149 44.2234 181.12 44.2523 181.082 44.2523H180.465C180.426 44.2523 180.397 44.2234 180.397 44.1944V42.6315C180.397 42.4675 180.32 42.371 180.262 42.3035C180.204 42.2456 180.137 42.1974 179.973 42.1877C179.684 42.1684 179.298 42.2553 179.298 42.6412V44.1848C179.298 44.2137 179.269 44.2427 179.231 44.2427H178.624C178.585 44.2427 178.556 44.2137 178.556 44.1848V41.7536C178.556 41.7246 178.585 41.6957 178.624 41.6957H179.298V41.8694C179.52 41.7246 179.78 41.6475 180.05 41.6475Z" fill="#135747"/>
<path d="M217.643 41.6475C218.356 41.6475 218.742 41.9851 218.742 42.6122V44.1944C218.742 44.2234 218.713 44.2523 218.674 44.2523H218.058C218.019 44.2523 217.99 44.2234 217.99 44.1944V42.6315C217.99 42.4675 217.913 42.371 217.855 42.3035C217.797 42.2456 217.73 42.1974 217.566 42.1877C217.277 42.1684 216.891 42.2553 216.891 42.6412V44.1848C216.891 44.2137 216.862 44.2427 216.824 44.2427H216.216C216.178 44.2427 216.149 44.2137 216.149 44.1848V41.7536C216.149 41.7246 216.178 41.6957 216.216 41.6957H216.891V41.8694C217.113 41.7246 217.373 41.6475 217.643 41.6475Z" fill="#135747"/>
<path d="M194.75 41.6475C195.463 41.6475 195.849 41.9851 195.849 42.6122V44.1944C195.849 44.2234 195.82 44.2523 195.781 44.2523H195.164C195.126 44.2523 195.097 44.2234 195.097 44.1944V42.6315C195.097 42.4675 195.02 42.371 194.962 42.3035C194.904 42.2456 194.837 42.1974 194.673 42.1877C194.384 42.1684 193.998 42.2553 193.998 42.6412V44.1848C193.998 44.2137 193.969 44.2427 193.931 44.2427H193.323C193.285 44.2427 193.256 44.2137 193.256 44.1848V41.7536C193.256 41.7246 193.285 41.6957 193.323 41.6957H193.998V41.8694C194.229 41.7246 194.48 41.6475 194.75 41.6475Z" fill="#135747"/>
<path d="M146.564 36.0996H133.888C133.58 36.0996 133.339 35.8487 133.339 35.5304V20.6923C133.339 20.3739 133.589 20.123 133.888 20.123H145.889C146.197 20.123 146.438 20.3739 146.438 20.6923V23.6637C146.438 23.8181 146.313 23.9532 146.159 23.9532H138.1C137.946 23.9532 137.821 24.0786 137.821 24.2426V25.9599C137.821 26.1142 137.946 26.2493 138.1 26.2493H145.349C145.503 26.2493 145.629 26.3747 145.629 26.5387V29.5874C145.629 29.7418 145.503 29.8768 145.349 29.8768H138.1C137.946 29.8768 137.821 30.0022 137.821 30.1663V32.009C137.821 32.1633 137.946 32.2984 138.1 32.2984H146.833C146.988 32.2984 147.113 32.4238 147.113 32.5878V35.5593C147.113 35.8391 146.872 36.0996 146.564 36.0996Z" fill="#135747"/>
</svg>
